<svg width="110" height="18" viewBox="0 0 110 18" fill="none" xmlns="http://www.w3.org/2000/svg">
<path fill-rule="evenodd" clip-rule="evenodd" d="M95.3128 4.93913C94.7182 4.72088 94.4119 4.05807 94.6283 3.45863C94.8445 2.85919 95.5017 2.55 96.096 2.76825C94.8547 2.31244 93.4819 2.95819 93.03 4.21013C92.5784 5.46225 93.2183 6.84675 94.4598 7.30238L106.214 11.6173L96.096 15.3315C94.8547 15.7871 93.4819 15.1416 93.03 13.8894C92.5784 12.6375 93.2183 11.253 94.4598 10.7974C92.5712 11.4906 91.5976 13.5966 92.2849 15.5012C92.9724 17.406 95.0605 18.3879 96.9489 17.6948L107.988 13.6425C109.097 13.2354 109.669 11.9987 109.265 10.8801C109.04 10.2574 108.56 9.8025 107.988 9.59213L95.3128 4.93913Z" fill="#0C6B58"/>
<path fill-rule="evenodd" clip-rule="evenodd" d="M106.214 6.48302L96.096 2.76884C94.8547 2.31302 93.4819 2.95877 93.03 4.21071C92.5784 5.46284 93.2183 6.84734 94.4598 7.30296C92.5712 6.60977 91.5976 4.50377 92.2849 2.59896C92.9724 0.694335 95.0605 -0.28779 96.9489 0.405398L107.988 4.45784C109.097 4.86471 109.669 6.10165 109.265 7.22009C109.04 7.84277 108.56 8.29765 107.988 8.50821L95.3128 13.1612C94.7182 13.3795 94.4119 14.0423 94.6283 14.6417C94.8445 15.2411 95.5017 15.5503 96.096 15.3321C94.8547 15.7877 93.4819 15.1421 93.03 13.89C92.5784 12.6381 93.2183 11.2536 94.4598 10.798L106.214 6.48302Z" fill="#3EBD93"/>
<path fill-rule="evenodd" clip-rule="evenodd" d="M3.78158 8.82708H2.08312V11.7753H3.87081C4.90948 11.7753 5.47316 11.2214 5.47316 10.2787C5.47316 9.42576 4.86486 8.82708 3.78158 8.82708ZM3.46999 4.78664H2.08312V7.25582H3.54436C4.53859 7.25582 4.98366 6.76195 4.98366 5.96901C4.98366 5.2057 4.41961 4.78664 3.46999 4.78664ZM0.0799561 3.18539H3.57392C5.66613 3.18539 7.07569 4.03832 7.07569 5.75939C7.07569 6.89676 6.25955 7.65989 5.2655 7.89932V7.92933C6.80872 8.13876 7.60999 9.24614 7.60999 10.4583C7.60999 12.3438 6.09632 13.3914 4.07847 13.3914H0.0799561V3.18539ZM25.9971 8.91689H29.3207C29.2317 8.07895 28.5936 7.39045 27.6589 7.39045C26.6795 7.39045 26.0712 8.12376 25.9971 8.91689ZM31.2941 9.75501C31.2941 9.91964 31.2941 10.0991 31.2646 10.2937H25.9822C25.9822 11.2815 26.8132 12.1344 27.8221 12.1344C28.475 12.1344 28.935 11.85 29.2466 11.3861L30.8989 11.9928C30.3438 12.9277 29.3551 13.6458 27.8072 13.6458C25.6855 13.6458 24.0236 12.0896 24.0236 9.75501C24.0236 7.7047 25.359 5.98382 27.6738 5.98382C30.0181 5.98382 31.2941 7.7497 31.2941 9.75501ZM85.8039 8.15376C85.7595 7.64489 85.4331 7.34564 84.9878 7.34564C84.513 7.34564 84.2607 7.65989 84.2607 7.97414C84.2607 8.3782 84.4834 8.63264 85.6851 9.0517C87.1838 9.54558 87.7327 10.3087 87.7327 11.3413C87.7327 12.6581 86.7385 13.6458 84.9878 13.6458C83.1776 13.6458 82.3171 12.6881 82.2429 11.2964H84.0382C84.0826 11.8649 84.3795 12.269 85.0324 12.269C85.537 12.269 85.8484 11.9248 85.8484 11.5059C85.8484 11.012 85.507 10.7128 84.4388 10.3535C83.1034 9.91964 82.4061 9.24614 82.4061 8.12376C82.4061 6.83695 83.4448 5.98382 84.9729 5.98382C86.5457 5.98382 87.4212 6.89676 87.5695 8.15376H85.8039ZM76.371 8.91689H79.6946C79.6056 8.07895 78.9675 7.39045 78.0326 7.39045C77.0536 7.39045 76.4451 8.12376 76.371 8.91689ZM81.668 9.75501C81.668 9.91964 81.668 10.0991 81.6385 10.2937H76.3563C76.3563 11.2815 77.1869 12.1344 78.1958 12.1344C78.8489 12.1344 79.3091 11.85 79.6203 11.3861L81.2728 11.9928C80.7177 12.9277 79.729 13.6458 78.1812 13.6458C76.0594 13.6458 74.3975 12.0896 74.3975 9.75501C74.3975 7.7047 75.7329 5.98382 78.0477 5.98382C80.392 5.98382 81.668 7.7497 81.668 9.75501ZM66.6266 2.6167H68.6296V7.1212H68.689C69.1785 6.32807 69.9798 5.99882 70.7809 5.99882C72.3687 5.99882 73.4816 7.0612 73.4816 9.27614V13.3914H71.4784V9.39595C71.4784 8.3332 70.974 7.7797 70.143 7.7797C69.2676 7.7797 68.6296 8.3932 68.6296 9.60539V13.3914H66.6266V2.6167ZM61.5262 11.7903C62.5204 11.7903 63.3366 10.967 63.3366 9.78483C63.3366 8.55783 62.55 7.7497 61.5411 7.7497C60.3392 7.7497 59.716 8.76726 59.716 9.77001C59.716 10.7578 60.2799 11.7903 61.5262 11.7903ZM65.2209 13.167C65.2209 15.8308 64.0339 17.2374 61.4076 17.2374C59.6848 17.2374 58.4633 16.4173 57.9941 15.0397L59.8348 14.3641C59.983 15.0525 60.4875 15.5911 61.5262 15.5911C62.7281 15.5911 63.3514 14.828 63.3514 13.4364V12.5234H63.3066C62.832 13.0921 62.1347 13.556 61.0365 13.556C59.1968 13.556 57.6833 12.1044 57.6833 9.78483C57.6833 7.62989 59.1523 5.99882 61.1257 5.99882C62.2533 5.99882 62.9211 6.58251 63.2771 7.0912H63.3514V6.22326H65.2209V13.167ZM56.6487 13.3914H54.6604V12.4935H54.6158C54.0371 13.3466 53.3102 13.6308 52.5384 13.6308C51.3812 13.6308 49.9567 12.9125 49.9567 10.4733V6.22326H51.9599V10.2189C51.9599 11.2664 52.4494 11.8351 53.2211 11.8351C54.0964 11.8351 54.6455 11.2214 54.6455 10.0244V6.22326H56.6487V13.3914ZM46.544 9.0517H42.6491V13.3914H40.5273V3.18539H42.6491V7.19601H46.544V3.18539H48.6658V13.3914H46.544V9.0517ZM37.0919 7.95914C36.8394 7.91433 36.5427 7.86932 36.1421 7.86932C34.9551 7.86932 34.3614 8.61764 34.3614 9.90464V13.3914H32.3585V6.22326H34.3172V7.33064H34.3614C34.7474 6.62732 35.4892 6.01364 36.439 6.01364C36.7208 6.01364 36.8989 6.02882 37.0919 6.07364V7.95914ZM19.8727 10.4433L19.4126 10.8922V13.3914H17.4096V2.6167H19.4126V8.64764L21.668 6.22326H24.1014L21.2525 9.17132L24.5317 13.3914H22.1131L19.8727 10.4433ZM12.2648 11.8801C13.2144 11.8801 14.0452 11.042 14.0452 9.82982C14.0452 8.57264 13.2737 7.7497 12.2796 7.7497C11.0331 7.7497 10.4397 8.78226 10.4397 9.81482C10.4397 10.8624 11.0184 11.8801 12.2648 11.8801ZM15.9444 13.3914H14.0156V12.4935H13.9563C13.4962 13.1071 12.7989 13.6308 11.6416 13.6308C10.2618 13.6308 8.40698 12.5085 8.40698 9.80001C8.40698 7.49526 9.97976 6.02882 11.7899 6.02882C12.9028 6.02882 13.5704 6.58251 13.9563 7.1512H14.0156V6.22326H15.9444V13.3914Z" fill="#121212"/>
</svg>
