<svg width="1920" height="43" viewBox="0 0 1920 43" fill="none" xmlns="http://www.w3.org/2000/svg">
<mask id="path-1-inside-1_4344_13540" fill="white">
<path d="M0 0.878906H1920V42.8789H0V0.878906Z"/>
</mask>
<path d="M0 1.87891H1920V-0.121094H0V1.87891Z" fill="#595959" mask="url(#path-1-inside-1_4344_13540)"/>
<path fill-rule="evenodd" clip-rule="evenodd" d="M127.044 17.7682C126.451 17.5499 126.145 16.8871 126.361 16.2877C126.577 15.6883 127.232 15.3791 127.826 15.5974C126.587 15.1416 125.217 15.7873 124.766 17.0392C124.315 18.2913 124.954 19.6757 126.193 20.1314L137.924 24.4462L127.826 28.1603C126.587 28.6159 125.217 27.9703 124.766 26.7182C124.315 25.4663 124.954 24.0819 126.193 23.6263C124.308 24.3194 123.336 26.4254 124.022 28.3299C124.708 30.2347 126.792 31.2166 128.677 30.5234L139.694 26.4713C140.801 26.0643 141.371 24.8275 140.968 23.7089C140.744 23.0863 140.265 22.6314 139.694 22.421L127.044 17.7682Z" fill="#0C6B58"/>
<path fill-rule="evenodd" clip-rule="evenodd" d="M137.924 19.3115L127.826 15.5974C126.587 15.1416 125.217 15.7873 124.766 17.0392C124.315 18.2913 124.954 19.6758 126.193 20.1314C124.308 19.4382 123.336 17.3323 124.022 15.4275C124.708 13.5229 126.792 12.5408 128.677 13.234L139.694 17.2863C140.801 17.6932 141.371 18.9301 140.968 20.0485C140.744 20.6712 140.265 21.126 139.694 21.3366L127.044 25.9895C126.451 26.2077 126.145 26.8705 126.361 27.4699C126.577 28.0694 127.232 28.3785 127.826 28.1603C126.587 28.6159 125.217 27.9704 124.766 26.7183C124.315 25.4664 124.954 24.0819 126.193 23.6263L137.924 19.3115Z" fill="#3EBD93"/>
<path fill-rule="evenodd" clip-rule="evenodd" d="M35.6943 21.656H33.9992V24.6042H35.7833C36.8199 24.6042 37.3825 24.0503 37.3825 23.1076C37.3825 22.2547 36.7754 21.656 35.6943 21.656ZM35.3833 17.6157H33.9992V20.0848H35.4575C36.4498 20.0848 36.894 19.5909 36.894 18.798C36.894 18.0347 36.331 17.6157 35.3833 17.6157ZM32 16.0145H35.487C37.5751 16.0145 38.9819 16.8674 38.9819 18.5884C38.9819 19.7257 38.1673 20.4889 37.1753 20.7283V20.7583C38.7154 20.9677 39.5151 22.0751 39.5151 23.2872C39.5151 25.1727 38.0044 26.2202 35.9906 26.2202H32V16.0145ZM57.8657 21.7458H61.1828C61.0939 20.9079 60.4571 20.2194 59.5242 20.2194C58.5468 20.2194 57.9397 20.9527 57.8657 21.7458ZM63.1523 22.5839C63.1523 22.7485 63.1523 22.928 63.1228 23.1226H57.8508C57.8508 24.1103 58.6802 24.9632 59.6871 24.9632C60.3387 24.9632 60.7978 24.6788 61.1087 24.2149L62.7578 24.8217C62.2038 25.7565 61.2171 26.4746 59.6723 26.4746C57.5547 26.4746 55.8962 24.9184 55.8962 22.5839C55.8962 20.5337 57.2289 18.8128 59.5391 18.8128C61.8787 18.8128 63.1523 20.5787 63.1523 22.5839ZM117.554 20.9827C117.51 20.4739 117.184 20.1746 116.739 20.1746C116.266 20.1746 116.014 20.4889 116.014 20.8031C116.014 21.2071 116.236 21.4616 117.435 21.8806C118.931 22.3745 119.479 23.1376 119.479 24.1701C119.479 25.4869 118.487 26.4746 116.739 26.4746C114.933 26.4746 114.074 25.5169 114 24.1253H115.792C115.836 24.6938 116.132 25.0979 116.784 25.0979C117.287 25.0979 117.598 24.7536 117.598 24.3347C117.598 23.8409 117.258 23.5416 116.191 23.1824C114.859 22.7485 114.163 22.0751 114.163 20.9527C114.163 19.6659 115.199 18.8128 116.725 18.8128C118.294 18.8128 119.168 19.7257 119.316 20.9827H117.554ZM108.14 21.7458H111.457C111.368 20.9079 110.731 20.2194 109.798 20.2194C108.821 20.2194 108.214 20.9527 108.14 21.7458ZM113.426 22.5839C113.426 22.7485 113.426 22.928 113.397 23.1226H108.125C108.125 24.1103 108.954 24.9632 109.961 24.9632C110.613 24.9632 111.072 24.6788 111.383 24.2149L113.032 24.8217C112.478 25.7565 111.491 26.4746 109.946 26.4746C107.829 26.4746 106.17 24.9184 106.17 22.5839C106.17 20.5337 107.503 18.8128 109.813 18.8128C112.153 18.8128 113.426 20.5787 113.426 22.5839ZM98.4146 15.4458H100.414V19.9502H100.473C100.961 19.1571 101.761 18.8278 102.561 18.8278C104.145 18.8278 105.256 19.8902 105.256 22.1051V26.2202H103.257V22.2249C103.257 21.1621 102.753 20.6087 101.924 20.6087C101.05 20.6087 100.414 21.2221 100.414 22.4343V26.2202H98.4146V15.4458ZM93.3243 24.6192C94.3166 24.6192 95.1311 23.7959 95.1311 22.6137C95.1311 21.3868 94.3461 20.5787 93.3392 20.5787C92.1396 20.5787 91.5177 21.5962 91.5177 22.5989C91.5177 23.5866 92.0805 24.6192 93.3243 24.6192ZM97.0117 25.9958C97.0117 28.6595 95.8271 30.0661 93.2059 30.0661C91.4866 30.0661 90.2676 29.246 89.7993 27.8685L91.6363 27.1929C91.7842 27.8812 92.2877 28.4199 93.3243 28.4199C94.5238 28.4199 95.1459 27.6568 95.1459 26.2652V25.3523H95.1012C94.6275 25.921 93.9316 26.3848 92.8356 26.3848C90.9995 26.3848 89.489 24.9332 89.489 22.6137C89.489 20.4589 90.9552 18.8278 92.9247 18.8278C94.05 18.8278 94.7164 19.4115 95.0717 19.9202H95.1459V19.0523H97.0117V25.9958ZM88.4565 26.2202H86.4722V25.3223H86.4276C85.85 26.1754 85.1246 26.4596 84.3544 26.4596C83.1994 26.4596 81.7778 25.7413 81.7778 23.3022V19.0523H83.777V23.0478C83.777 24.0953 84.2655 24.664 85.0357 24.664C85.9092 24.664 86.4573 24.0503 86.4573 22.8533V19.0523H88.4565V26.2202ZM78.3719 21.8806H74.4846V26.2202H72.3671V16.0145H74.4846V20.025H78.3719V16.0145H80.4894V26.2202H78.3719V21.8806ZM68.9385 20.7881C68.6865 20.7433 68.3904 20.6983 67.9906 20.6983C66.8059 20.6983 66.2135 21.4466 66.2135 22.7335V26.2202H64.2145V19.0523H66.1693V20.1596H66.2135C66.5987 19.4563 67.339 18.8426 68.2869 18.8426C68.5682 18.8426 68.7459 18.8578 68.9385 18.9026V20.7881ZM51.7535 23.2722L51.2942 23.7211V26.2202H49.2952V15.4458H51.2942V21.4766L53.5452 19.0523H55.9737L53.1305 22.0002L56.4033 26.2202H53.9894L51.7535 23.2722ZM44.1606 24.709C45.1084 24.709 45.9375 23.8709 45.9375 22.6587C45.9375 21.4016 45.1676 20.5787 44.1755 20.5787C42.9314 20.5787 42.3392 21.6112 42.3392 22.6437C42.3392 23.6913 42.9168 24.709 44.1606 24.709ZM47.833 26.2202H45.908V25.3223H45.8489C45.3896 25.936 44.6937 26.4596 43.5387 26.4596C42.1616 26.4596 40.3105 25.3373 40.3105 22.6289C40.3105 20.3242 41.8802 18.8578 43.6868 18.8578C44.7974 18.8578 45.4637 19.4115 45.8489 19.9802H45.908V19.0523H47.833V26.2202Z" fill="white"/>
<path d="M165.862 17.4309C166.67 17.4309 167.39 17.6149 168.022 17.9829C168.654 18.3429 169.142 18.8469 169.486 19.4949C169.838 20.1349 170.014 20.8669 170.014 21.6909C170.014 22.5149 169.838 23.2509 169.486 23.8989C169.142 24.5389 168.654 25.0429 168.022 25.4109C167.39 25.7709 166.67 25.9509 165.862 25.9509C165.046 25.9509 164.322 25.7709 163.69 25.4109C163.058 25.0429 162.566 24.5389 162.214 23.8989C161.862 23.2509 161.686 22.5149 161.686 21.6909C161.686 20.8669 161.862 20.1349 162.214 19.4949C162.566 18.8469 163.058 18.3429 163.69 17.9829C164.322 17.6149 165.046 17.4309 165.862 17.4309ZM165.862 17.9109C165.118 17.9109 164.47 18.0709 163.918 18.3909C163.366 18.7029 162.942 19.1429 162.646 19.7109C162.35 20.2789 162.202 20.9389 162.202 21.6909C162.202 22.4349 162.35 23.0949 162.646 23.6709C162.942 24.2389 163.366 24.6829 163.918 25.0029C164.47 25.3229 165.118 25.4829 165.862 25.4829C166.598 25.4829 167.238 25.3229 167.782 25.0029C168.334 24.6829 168.758 24.2389 169.054 23.6709C169.35 23.0949 169.498 22.4349 169.498 21.6909C169.498 20.9389 169.35 20.2789 169.054 19.7109C168.758 19.1429 168.334 18.7029 167.782 18.3909C167.238 18.0709 166.598 17.9109 165.862 17.9109ZM165.838 18.9069C165.358 18.9069 164.918 19.0189 164.518 19.2429C164.126 19.4669 163.814 19.7909 163.582 20.2149C163.35 20.6309 163.234 21.1189 163.234 21.6789C163.234 22.2389 163.35 22.7309 163.582 23.1549C163.814 23.5709 164.126 23.8949 164.518 24.1269C164.918 24.3509 165.358 24.4629 165.838 24.4629C166.438 24.4629 166.958 24.3029 167.398 23.9829C167.838 23.6549 168.138 23.2189 168.298 22.6749H167.29C167.05 23.3389 166.566 23.6709 165.838 23.6709C165.358 23.6709 164.966 23.4989 164.662 23.1549C164.358 22.8109 164.206 22.3229 164.206 21.6909C164.206 21.0509 164.358 20.5589 164.662 20.2149C164.966 19.8709 165.358 19.6989 165.838 19.6989C166.19 19.6989 166.494 19.7869 166.75 19.9629C167.006 20.1309 167.186 20.3749 167.29 20.6949H168.298C168.146 20.1269 167.85 19.6869 167.41 19.3749C166.97 19.0629 166.446 18.9069 165.838 18.9069Z" fill="white" fill-opacity="0.8"/>
<path d="M173.71 25.0029C174.726 24.1869 175.522 23.5189 176.098 22.9989C176.674 22.4709 177.158 21.9229 177.55 21.3549C177.95 20.7789 178.15 20.2149 178.15 19.6629C178.15 19.1429 178.022 18.7349 177.766 18.4389C177.518 18.1349 177.114 17.9829 176.554 17.9829C176.01 17.9829 175.586 18.1549 175.282 18.4989C174.986 18.8349 174.826 19.2869 174.802 19.8549H173.746C173.778 18.9589 174.05 18.2669 174.562 17.7789C175.074 17.2909 175.734 17.0469 176.542 17.0469C177.366 17.0469 178.018 17.2749 178.498 17.7309C178.986 18.1869 179.23 18.8149 179.23 19.6149C179.23 20.2789 179.03 20.9269 178.63 21.5589C178.238 22.1829 177.79 22.7349 177.286 23.2149C176.782 23.6869 176.138 24.2389 175.354 24.8709H179.482V25.7829H173.71V25.0029ZM180.744 21.4509C180.744 20.0749 180.968 19.0029 181.416 18.2349C181.864 17.4589 182.648 17.0709 183.768 17.0709C184.88 17.0709 185.66 17.4589 186.108 18.2349C186.556 19.0029 186.78 20.0749 186.78 21.4509C186.78 22.8509 186.556 23.9389 186.108 24.7149C185.66 25.4909 184.88 25.8789 183.768 25.8789C182.648 25.8789 181.864 25.4909 181.416 24.7149C180.968 23.9389 180.744 22.8509 180.744 21.4509ZM185.7 21.4509C185.7 20.7549 185.652 20.1669 185.556 19.6869C185.468 19.1989 185.28 18.8069 184.992 18.5109C184.712 18.2149 184.304 18.0669 183.768 18.0669C183.224 18.0669 182.808 18.2149 182.52 18.5109C182.24 18.8069 182.052 19.1989 181.956 19.6869C181.868 20.1669 181.824 20.7549 181.824 21.4509C181.824 22.1709 181.868 22.7749 181.956 23.2629C182.052 23.7509 182.24 24.1429 182.52 24.4389C182.808 24.7349 183.224 24.8829 183.768 24.8829C184.304 24.8829 184.712 24.7349 184.992 24.4389C185.28 24.1429 185.468 23.7509 185.556 23.2629C185.652 22.7749 185.7 22.1709 185.7 21.4509ZM188.147 25.0029C189.163 24.1869 189.959 23.5189 190.535 22.9989C191.111 22.4709 191.595 21.9229 191.987 21.3549C192.387 20.7789 192.587 20.2149 192.587 19.6629C192.587 19.1429 192.459 18.7349 192.203 18.4389C191.955 18.1349 191.551 17.9829 190.991 17.9829C190.447 17.9829 190.023 18.1549 189.719 18.4989C189.423 18.8349 189.263 19.2869 189.239 19.8549H188.183C188.215 18.9589 188.487 18.2669 188.999 17.7789C189.511 17.2909 190.171 17.0469 190.979 17.0469C191.803 17.0469 192.455 17.2749 192.935 17.7309C193.423 18.1869 193.667 18.8149 193.667 19.6149C193.667 20.2789 193.467 20.9269 193.067 21.5589C192.675 22.1829 192.227 22.7349 191.723 23.2149C191.219 23.6869 190.575 24.2389 189.791 24.8709H193.919V25.7829H188.147V25.0029ZM200.714 18.1509H196.502V20.8869C196.686 20.6309 196.958 20.4229 197.318 20.2629C197.678 20.0949 198.066 20.0109 198.482 20.0109C199.146 20.0109 199.686 20.1509 200.102 20.4309C200.518 20.7029 200.814 21.0589 200.99 21.4989C201.174 21.9309 201.266 22.3909 201.266 22.8789C201.266 23.4549 201.158 23.9709 200.942 24.4269C200.726 24.8829 200.394 25.2429 199.946 25.5069C199.506 25.7709 198.958 25.9029 198.302 25.9029C197.462 25.9029 196.782 25.6869 196.262 25.2549C195.742 24.8229 195.426 24.2469 195.314 23.5269H196.382C196.486 23.9829 196.706 24.3389 197.042 24.5949C197.378 24.8509 197.802 24.9789 198.314 24.9789C198.946 24.9789 199.422 24.7909 199.742 24.4149C200.062 24.0309 200.222 23.5269 200.222 22.9029C200.222 22.2789 200.062 21.7989 199.742 21.4629C199.422 21.1189 198.95 20.9469 198.326 20.9469C197.902 20.9469 197.53 21.0509 197.21 21.2589C196.898 21.4589 196.67 21.7349 196.526 22.0869H195.494V17.1909H200.714V18.1509Z" fill="white" fill-opacity="0.8"/>
<path d="M210.602 22.3029C210.914 22.6989 211.07 23.1429 211.07 23.6349C211.07 24.0669 210.95 24.4509 210.734 24.7869C210.518 25.1229 210.194 25.3989 209.786 25.5909C209.366 25.7829 208.886 25.8789 208.334 25.8789H204.998V17.5389H208.178C208.742 17.5389 209.234 17.6349 209.642 17.8269C210.05 18.0189 210.35 18.2829 210.566 18.6069C210.77 18.9309 210.878 19.2909 210.878 19.6869C210.878 20.1669 210.746 20.5749 210.494 20.8869C210.23 21.2109 209.894 21.4509 209.462 21.5949C209.906 21.6789 210.29 21.9189 210.602 22.3029ZM206.366 21.0429H208.058C208.502 21.0429 208.85 20.9469 209.102 20.7429C209.354 20.5389 209.486 20.2389 209.486 19.8549C209.486 19.4829 209.354 19.1949 209.102 18.9789C208.85 18.7629 208.502 18.6549 208.058 18.6549H206.366V21.0429ZM209.306 24.4269C209.57 24.2109 209.702 23.8989 209.702 23.4909C209.702 23.0829 209.558 22.7589 209.282 22.5189C208.994 22.2789 208.622 22.1589 208.166 22.1589H206.366V24.7629H208.214C208.67 24.7629 209.042 24.6549 209.306 24.4269ZM212.258 20.7789C212.534 20.2749 212.906 19.8789 213.386 19.5909C213.866 19.3029 214.394 19.1589 214.97 19.1589C215.486 19.1589 215.942 19.2669 216.326 19.4709C216.71 19.6749 217.022 19.9269 217.262 20.2269V19.2669H218.642V25.8789H217.262V24.8949C217.022 25.2069 216.71 25.4709 216.314 25.6749C215.906 25.8909 215.45 25.9869 214.946 25.9869C214.37 25.9869 213.854 25.8429 213.386 25.5549C212.906 25.2669 212.534 24.8589 212.258 24.3309C211.982 23.8029 211.85 23.2149 211.85 22.5429C211.85 21.8829 211.982 21.2949 212.258 20.7789ZM216.974 21.3789C216.782 21.0429 216.542 20.7909 216.242 20.6109C215.93 20.4429 215.606 20.3469 215.258 20.3469C214.898 20.3469 214.574 20.4429 214.274 20.6109C213.962 20.7789 213.722 21.0309 213.53 21.3669C213.338 21.7029 213.254 22.0869 213.254 22.5429C213.254 22.9989 213.338 23.4069 213.53 23.7429C213.722 24.0909 213.962 24.3549 214.274 24.5349C214.586 24.7149 214.91 24.7989 215.258 24.7989C215.606 24.7989 215.93 24.7149 216.242 24.5349C216.542 24.3669 216.782 24.1029 216.974 23.7669C217.166 23.4309 217.262 23.0229 217.262 22.5669C217.262 22.1109 217.166 21.7149 216.974 21.3789ZM222.805 22.5789L225.853 25.8789H224.005L221.557 23.0349V25.8789H220.189V16.9989H221.557V22.1589L223.957 19.2669H225.853L222.805 22.5789ZM232.596 23.0829H227.544C227.58 23.6109 227.772 24.0429 228.132 24.3549C228.48 24.6789 228.912 24.8349 229.428 24.8349C230.16 24.8349 230.676 24.5349 230.988 23.9109H232.464C232.26 24.5229 231.9 25.0269 231.372 25.4109C230.844 25.7949 230.196 25.9869 229.428 25.9869C228.792 25.9869 228.228 25.8549 227.724 25.5669C227.22 25.2789 226.836 24.8829 226.548 24.3669C226.26 23.8509 226.128 23.2509 226.128 22.5669C226.128 21.8949 226.26 21.2949 226.536 20.7789C226.812 20.2629 227.196 19.8669 227.7 19.5789C228.204 19.3029 228.78 19.1589 229.428 19.1589C230.052 19.1589 230.604 19.3029 231.096 19.5669C231.576 19.8429 231.96 20.2269 232.236 20.7189C232.5 21.2109 232.644 21.7749 232.644 22.4109C232.644 22.6629 232.62 22.8909 232.596 23.0829ZM231.216 21.9789C231.204 21.4749 231.024 21.0789 230.676 20.7669C230.316 20.4669 229.884 20.3109 229.368 20.3109C228.888 20.3109 228.492 20.4669 228.156 20.7669C227.82 21.0669 227.616 21.4749 227.556 21.9789H231.216ZM235.9 19.4469C236.236 19.2549 236.632 19.1589 237.088 19.1589V20.5749H236.74C236.2 20.5749 235.792 20.7189 235.516 20.9829C235.24 21.2589 235.108 21.7269 235.108 22.3989V25.8789H233.74V19.2669H235.108V20.2269C235.3 19.8909 235.564 19.6389 235.9 19.4469ZM247.623 17.5389V25.8789H246.255V22.2309H242.331V25.8789H240.963V17.5389H242.331V21.1149H246.255V17.5389H247.623ZM255.161 19.2669V25.8789H253.793V25.0989C253.577 25.3749 253.289 25.5909 252.941 25.7469C252.593 25.9029 252.221 25.9749 251.837 25.9749C251.309 25.9749 250.841 25.8669 250.433 25.6509C250.025 25.4349 249.701 25.1229 249.461 24.6909C249.221 24.2709 249.113 23.7549 249.113 23.1549V19.2669H250.469V22.9509C250.469 23.5509 250.613 24.0069 250.913 24.3189C251.201 24.6309 251.609 24.7869 252.125 24.7869C252.629 24.7869 253.037 24.6309 253.337 24.3189C253.637 24.0069 253.793 23.5509 253.793 22.9509V19.2669H255.161ZM260.736 19.4709C261.132 19.6749 261.444 19.9269 261.672 20.2269V19.2669H263.052V25.9869C263.052 26.5989 262.92 27.1389 262.668 27.6189C262.404 28.0989 262.032 28.4709 261.552 28.7349C261.072 29.0109 260.496 29.1429 259.824 29.1429C258.924 29.1429 258.18 28.9389 257.592 28.5189C256.992 28.0989 256.656 27.5229 256.584 26.8029H257.94C258.036 27.1509 258.264 27.4269 258.6 27.6429C258.936 27.8589 259.344 27.9549 259.824 27.9549C260.376 27.9549 260.82 27.7869 261.156 27.4509C261.492 27.1149 261.672 26.6349 261.672 25.9869V24.8829C261.432 25.1949 261.12 25.4589 260.724 25.6749C260.328 25.8909 259.884 25.9869 259.38 25.9869C258.804 25.9869 258.276 25.8429 257.796 25.5549C257.316 25.2669 256.944 24.8589 256.668 24.3309C256.392 23.8029 256.26 23.2149 256.26 22.5429C256.26 21.8829 256.392 21.2949 256.668 20.7789C256.944 20.2749 257.316 19.8789 257.796 19.5909C258.276 19.3029 258.804 19.1589 259.38 19.1589C259.884 19.1589 260.34 19.2669 260.736 19.4709ZM261.384 21.3789C261.192 21.0429 260.952 20.7909 260.652 20.6109C260.34 20.4429 260.016 20.3469 259.668 20.3469C259.308 20.3469 258.984 20.4429 258.684 20.6109C258.372 20.7789 258.132 21.0309 257.94 21.3669C257.748 21.7029 257.664 22.0869 257.664 22.5429C257.664 22.9989 257.748 23.4069 257.94 23.7429C258.132 24.0909 258.372 24.3549 258.684 24.5349C258.996 24.7149 259.32 24.7989 259.668 24.7989C260.016 24.7989 260.34 24.7149 260.652 24.5349C260.952 24.3669 261.192 24.1029 261.384 23.7669C261.576 23.4309 261.672 23.0229 261.672 22.5669C261.672 22.1109 261.576 21.7149 261.384 21.3789ZM269.363 19.4829C269.759 19.6989 270.071 20.0229 270.299 20.4429C270.527 20.8749 270.647 21.3789 270.647 21.9789V25.8789H269.291V22.1829C269.291 21.5949 269.135 21.1389 268.847 20.8269C268.547 20.5149 268.139 20.3469 267.635 20.3469C267.119 20.3469 266.711 20.5149 266.411 20.8269C266.111 21.1389 265.967 21.5949 265.967 22.1829V25.8789H264.599V16.9989H265.967V20.0349C266.195 19.7589 266.483 19.5429 266.843 19.3869C267.203 19.2429 267.587 19.1589 268.019 19.1589C268.523 19.1589 268.967 19.2669 269.363 19.4829ZM278.154 23.0829H273.102C273.138 23.6109 273.33 24.0429 273.69 24.3549C274.038 24.6789 274.47 24.8349 274.986 24.8349C275.718 24.8349 276.234 24.5349 276.546 23.9109H278.022C277.818 24.5229 277.458 25.0269 276.93 25.4109C276.402 25.7949 275.754 25.9869 274.986 25.9869C274.35 25.9869 273.786 25.8549 273.282 25.5669C272.778 25.2789 272.394 24.8829 272.106 24.3669C271.818 23.8509 271.686 23.2509 271.686 22.5669C271.686 21.8949 271.818 21.2949 272.094 20.7789C272.37 20.2629 272.754 19.8669 273.258 19.5789C273.762 19.3029 274.338 19.1589 274.986 19.1589C275.61 19.1589 276.162 19.3029 276.654 19.5669C277.134 19.8429 277.518 20.2269 277.794 20.7189C278.058 21.2109 278.202 21.7749 278.202 22.4109C278.202 22.6629 278.178 22.8909 278.154 23.0829ZM276.774 21.9789C276.762 21.4749 276.582 21.0789 276.234 20.7669C275.874 20.4669 275.442 20.3109 274.926 20.3109C274.446 20.3109 274.05 20.4669 273.714 20.7669C273.378 21.0669 273.174 21.4749 273.114 21.9789H276.774ZM280.294 25.7109C279.886 25.5189 279.562 25.2669 279.322 24.9429C279.082 24.6189 278.95 24.2589 278.938 23.8509H280.354C280.378 24.1389 280.51 24.3669 280.75 24.5589C280.99 24.7509 281.302 24.8349 281.674 24.8349C282.058 24.8349 282.346 24.7629 282.562 24.6189C282.778 24.4749 282.886 24.2829 282.886 24.0429C282.886 23.8029 282.766 23.6109 282.526 23.4909C282.286 23.3709 281.914 23.2389 281.41 23.0949C280.906 22.9629 280.51 22.8309 280.198 22.6989C279.886 22.5789 279.61 22.3749 279.382 22.1109C279.154 21.8469 279.046 21.4989 279.046 21.0669C279.046 20.7189 279.142 20.3949 279.358 20.1069C279.562 19.8189 279.862 19.5789 280.246 19.4109C280.63 19.2429 281.086 19.1589 281.59 19.1589C282.334 19.1589 282.946 19.3509 283.402 19.7349C283.858 20.1189 284.11 20.6349 284.146 21.2829H282.778C282.754 20.9949 282.634 20.7549 282.418 20.5749C282.202 20.4069 281.902 20.3109 281.542 20.3109C281.182 20.3109 280.906 20.3829 280.714 20.5149C280.522 20.6589 280.426 20.8389 280.426 21.0549C280.426 21.2349 280.486 21.3789 280.618 21.4989C280.738 21.6189 280.894 21.7149 281.086 21.7869C281.266 21.8589 281.542 21.9429 281.902 22.0389C282.382 22.1709 282.766 22.3029 283.078 22.4349C283.39 22.5669 283.654 22.7589 283.882 23.0109C284.098 23.2749 284.218 23.6109 284.23 24.0309C284.23 24.4149 284.122 24.7509 283.918 25.0389C283.702 25.3389 283.414 25.5669 283.03 25.7349C282.646 25.9029 282.202 25.9869 281.698 25.9869C281.17 25.9869 280.702 25.9029 280.294 25.7109ZM288.434 19.4949C288.818 18.8469 289.334 18.3429 289.982 17.9829C290.63 17.6229 291.35 17.4309 292.13 17.4309C293.018 17.4309 293.798 17.6589 294.494 18.0909C295.19 18.5229 295.694 19.1469 296.006 19.9389H294.362C294.146 19.5069 293.846 19.1709 293.462 18.9549C293.078 18.7389 292.634 18.6309 292.13 18.6309C291.578 18.6309 291.086 18.7629 290.654 19.0029C290.222 19.2549 289.874 19.6149 289.634 20.0709C289.394 20.5389 289.274 21.0789 289.274 21.6909C289.274 22.3149 289.394 22.8549 289.634 23.3109C289.874 23.7789 290.222 24.1389 290.654 24.3909C291.086 24.6429 291.578 24.7629 292.13 24.7629C292.634 24.7629 293.078 24.6549 293.462 24.4389C293.846 24.2229 294.146 23.8989 294.362 23.4549H296.006C295.694 24.2589 295.19 24.8709 294.494 25.3029C293.798 25.7349 293.018 25.9509 292.13 25.9509C291.338 25.9509 290.63 25.7709 289.982 25.4109C289.334 25.0509 288.818 24.5349 288.434 23.8869C288.05 23.2389 287.87 22.5069 287.87 21.6909C287.87 20.8749 288.05 20.1429 288.434 19.4949ZM298.533 25.5669C298.029 25.2789 297.633 24.8829 297.345 24.3669C297.057 23.8509 296.913 23.2509 296.913 22.5669C296.913 21.8949 297.057 21.3069 297.357 20.7789C297.645 20.2629 298.053 19.8669 298.569 19.5789C299.073 19.3029 299.649 19.1589 300.285 19.1589C300.909 19.1589 301.485 19.3029 302.001 19.5789C302.505 19.8669 302.913 20.2629 303.213 20.7789C303.501 21.3069 303.657 21.8949 303.657 22.5669C303.657 23.2389 303.501 23.8389 303.201 24.3549C302.889 24.8829 302.481 25.2789 301.953 25.5669C301.425 25.8549 300.849 25.9869 300.225 25.9869C299.601 25.9869 299.037 25.8549 298.533 25.5669ZM301.209 24.5469C301.521 24.3789 301.773 24.1269 301.965 23.7909C302.157 23.4549 302.253 23.0469 302.253 22.5669C302.253 22.0869 302.157 21.6909 301.977 21.3549C301.785 21.0189 301.545 20.7669 301.245 20.5989C300.933 20.4309 300.609 20.3469 300.261 20.3469C299.901 20.3469 299.577 20.4309 299.277 20.5989C298.977 20.7669 298.737 21.0189 298.569 21.3549C298.389 21.6909 298.305 22.0869 298.305 22.5669C298.305 23.2869 298.485 23.8389 298.845 24.2229C299.205 24.6069 299.673 24.7989 300.225 24.7989C300.573 24.7989 300.897 24.7149 301.209 24.5469ZM314.155 19.4829C314.563 19.6989 314.887 20.0229 315.127 20.4429C315.367 20.8749 315.487 21.3789 315.487 21.9789V25.8789H314.131V22.1829C314.131 21.5949 313.975 21.1389 313.687 20.8269C313.387 20.5149 312.979 20.3469 312.475 20.3469C311.959 20.3469 311.551 20.5149 311.251 20.8269C310.951 21.1389 310.807 21.5949 310.807 22.1829V25.8789H309.451V22.1829C309.451 21.5949 309.295 21.1389 309.007 20.8269C308.707 20.5149 308.299 20.3469 307.795 20.3469C307.279 20.3469 306.871 20.5149 306.571 20.8269C306.271 21.1389 306.127 21.5949 306.127 22.1829V25.8789H304.759V19.2669H306.127V20.0229C306.343 19.7589 306.631 19.5429 306.979 19.3869C307.315 19.2429 307.687 19.1589 308.083 19.1589C308.611 19.1589 309.079 19.2789 309.499 19.4949C309.907 19.7229 310.231 20.0469 310.459 20.4669C310.651 20.0709 310.963 19.7589 311.395 19.5189C311.815 19.2789 312.271 19.1589 312.763 19.1589C313.279 19.1589 313.747 19.2669 314.155 19.4829ZM319.294 19.4709C319.69 19.2669 320.146 19.1589 320.65 19.1589C321.226 19.1589 321.742 19.3029 322.222 19.5909C322.702 19.8789 323.074 20.2749 323.35 20.7789C323.614 21.2949 323.758 21.8829 323.758 22.5429C323.758 23.2149 323.614 23.8029 323.35 24.3309C323.074 24.8589 322.702 25.2669 322.222 25.5549C321.742 25.8429 321.226 25.9869 320.65 25.9869C320.146 25.9869 319.69 25.8909 319.306 25.6869C318.91 25.4829 318.586 25.2309 318.346 24.9189V29.0229H316.978V19.2669H318.346V20.2389C318.574 19.9389 318.886 19.6869 319.294 19.4709ZM322.078 21.3669C321.886 21.0309 321.646 20.7789 321.334 20.6109C321.022 20.4429 320.698 20.3469 320.35 20.3469C320.002 20.3469 319.678 20.4429 319.366 20.6109C319.054 20.7909 318.814 21.0429 318.622 21.3789C318.43 21.7149 318.346 22.1109 318.346 22.5669C318.346 23.0229 318.43 23.4309 318.622 23.7669C318.814 24.1029 319.054 24.3669 319.366 24.5349C319.678 24.7149 320.002 24.7989 320.35 24.7989C320.698 24.7989 321.022 24.7149 321.334 24.5349C321.646 24.3549 321.886 24.0909 322.078 23.7429C322.27 23.4069 322.366 22.9989 322.366 22.5429C322.366 22.0869 322.27 21.7029 322.078 21.3669ZM324.813 20.7789C325.089 20.2749 325.461 19.8789 325.941 19.5909C326.421 19.3029 326.949 19.1589 327.525 19.1589C328.041 19.1589 328.497 19.2669 328.881 19.4709C329.265 19.6749 329.577 19.9269 329.817 20.2269V19.2669H331.197V25.8789H329.817V24.8949C329.577 25.2069 329.265 25.4709 328.869 25.6749C328.461 25.8909 328.005 25.9869 327.501 25.9869C326.925 25.9869 326.409 25.8429 325.941 25.5549C325.461 25.2669 325.089 24.8589 324.813 24.3309C324.537 23.8029 324.405 23.2149 324.405 22.5429C324.405 21.8829 324.537 21.2949 324.813 20.7789ZM329.529 21.3789C329.337 21.0429 329.097 20.7909 328.797 20.6109C328.485 20.4429 328.161 20.3469 327.813 20.3469C327.453 20.3469 327.129 20.4429 326.829 20.6109C326.517 20.7789 326.277 21.0309 326.085 21.3669C325.893 21.7029 325.809 22.0869 325.809 22.5429C325.809 22.9989 325.893 23.4069 326.085 23.7429C326.277 24.0909 326.517 24.3549 326.829 24.5349C327.141 24.7149 327.465 24.7989 327.813 24.7989C328.161 24.7989 328.485 24.7149 328.797 24.5349C329.097 24.3669 329.337 24.1029 329.529 23.7669C329.721 23.4309 329.817 23.0229 329.817 22.5669C329.817 22.1109 329.721 21.7149 329.529 21.3789ZM337.472 19.4829C337.88 19.6989 338.204 20.0229 338.444 20.4429C338.672 20.8749 338.792 21.3789 338.792 21.9789V25.8789H337.436V22.1829C337.436 21.5949 337.28 21.1389 336.992 20.8269C336.692 20.5149 336.284 20.3469 335.78 20.3469C335.264 20.3469 334.856 20.5149 334.556 20.8269C334.256 21.1389 334.112 21.5949 334.112 22.1829V25.8789H332.744V19.2669H334.112V20.0229C334.328 19.7589 334.616 19.5429 334.964 19.3869C335.312 19.2429 335.684 19.1589 336.08 19.1589C336.596 19.1589 337.064 19.2669 337.472 19.4829ZM346.239 19.2669L342.183 28.9869H340.767L342.111 25.7709L339.507 19.2669H341.031L342.891 24.3069L344.823 19.2669H346.239Z" fill="white" fill-opacity="0.8"/>
<path d="M1755.29 17.5389V18.6549H1753.07V25.8789H1751.7V18.6549H1749.47V17.5389H1755.29ZM1762.44 23.0829H1757.38C1757.42 23.6109 1757.61 24.0429 1757.97 24.3549C1758.32 24.6789 1758.75 24.8349 1759.27 24.8349C1760 24.8349 1760.52 24.5349 1760.83 23.9109H1762.3C1762.1 24.5229 1761.74 25.0269 1761.21 25.4109C1760.68 25.7949 1760.04 25.9869 1759.27 25.9869C1758.63 25.9869 1758.07 25.8549 1757.56 25.5669C1757.06 25.2789 1756.68 24.8829 1756.39 24.3669C1756.1 23.8509 1755.97 23.2509 1755.97 22.5669C1755.97 21.8949 1756.1 21.2949 1756.38 20.7789C1756.65 20.2629 1757.04 19.8669 1757.54 19.5789C1758.04 19.3029 1758.62 19.1589 1759.27 19.1589C1759.89 19.1589 1760.44 19.3029 1760.94 19.5669C1761.42 19.8429 1761.8 20.2269 1762.08 20.7189C1762.34 21.2109 1762.48 21.7749 1762.48 22.4109C1762.48 22.6629 1762.46 22.8909 1762.44 23.0829ZM1761.06 21.9789C1761.04 21.4749 1760.86 21.0789 1760.52 20.7669C1760.16 20.4669 1759.72 20.3109 1759.21 20.3109C1758.73 20.3109 1758.33 20.4669 1758 20.7669C1757.66 21.0669 1757.46 21.4749 1757.4 21.9789H1761.06ZM1765.74 19.4469C1766.08 19.2549 1766.47 19.1589 1766.93 19.1589V20.5749H1766.58C1766.04 20.5749 1765.63 20.7189 1765.36 20.9829C1765.08 21.2589 1764.95 21.7269 1764.95 22.3989V25.8789H1763.58V19.2669H1764.95V20.2269C1765.14 19.8909 1765.4 19.6389 1765.74 19.4469ZM1777.33 19.4829C1777.74 19.6989 1778.06 20.0229 1778.3 20.4429C1778.54 20.8749 1778.66 21.3789 1778.66 21.9789V25.8789H1777.31V22.1829C1777.31 21.5949 1777.15 21.1389 1776.86 20.8269C1776.56 20.5149 1776.16 20.3469 1775.65 20.3469C1775.14 20.3469 1774.73 20.5149 1774.43 20.8269C1774.13 21.1389 1773.98 21.5949 1773.98 22.1829V25.8789H1772.63V22.1829C1772.63 21.5949 1772.47 21.1389 1772.18 20.8269C1771.88 20.5149 1771.48 20.3469 1770.97 20.3469C1770.46 20.3469 1770.05 20.5149 1769.75 20.8269C1769.45 21.1389 1769.3 21.5949 1769.3 22.1829V25.8789H1767.94V19.2669H1769.3V20.0229C1769.52 19.7589 1769.81 19.5429 1770.16 19.3869C1770.49 19.2429 1770.86 19.1589 1771.26 19.1589C1771.79 19.1589 1772.26 19.2789 1772.68 19.4949C1773.08 19.7229 1773.41 20.0469 1773.64 20.4669C1773.83 20.0709 1774.14 19.7589 1774.57 19.5189C1774.99 19.2789 1775.45 19.1589 1775.94 19.1589C1776.46 19.1589 1776.92 19.2669 1777.33 19.4829ZM1781.15 25.7109C1780.74 25.5189 1780.42 25.2669 1780.18 24.9429C1779.94 24.6189 1779.81 24.2589 1779.79 23.8509H1781.21C1781.23 24.1389 1781.37 24.3669 1781.61 24.5589C1781.85 24.7509 1782.16 24.8349 1782.53 24.8349C1782.91 24.8349 1783.2 24.7629 1783.42 24.6189C1783.63 24.4749 1783.74 24.2829 1783.74 24.0429C1783.74 23.8029 1783.62 23.6109 1783.38 23.4909C1783.14 23.3709 1782.77 23.2389 1782.27 23.0949C1781.76 22.9629 1781.37 22.8309 1781.05 22.6989C1780.74 22.5789 1780.47 22.3749 1780.24 22.1109C1780.01 21.8469 1779.9 21.4989 1779.9 21.0669C1779.9 20.7189 1780 20.3949 1780.21 20.1069C1780.42 19.8189 1780.72 19.5789 1781.1 19.4109C1781.49 19.2429 1781.94 19.1589 1782.45 19.1589C1783.19 19.1589 1783.8 19.3509 1784.26 19.7349C1784.71 20.1189 1784.97 20.6349 1785 21.2829H1783.63C1783.61 20.9949 1783.49 20.7549 1783.27 20.5749C1783.06 20.4069 1782.76 20.3109 1782.4 20.3109C1782.04 20.3109 1781.76 20.3829 1781.57 20.5149C1781.38 20.6589 1781.28 20.8389 1781.28 21.0549C1781.28 21.2349 1781.34 21.3789 1781.47 21.4989C1781.59 21.6189 1781.75 21.7149 1781.94 21.7869C1782.12 21.8589 1782.4 21.9429 1782.76 22.0389C1783.24 22.1709 1783.62 22.3029 1783.93 22.4349C1784.25 22.5669 1784.51 22.7589 1784.74 23.0109C1784.95 23.2749 1785.07 23.6109 1785.09 24.0309C1785.09 24.4149 1784.98 24.7509 1784.77 25.0389C1784.56 25.3389 1784.27 25.5669 1783.89 25.7349C1783.5 25.9029 1783.06 25.9869 1782.55 25.9869C1782.03 25.9869 1781.56 25.9029 1781.15 25.7109Z" fill="white" fill-opacity="0.8"/>
<path d="M1812.76 21.2229C1812.55 21.6069 1812.23 21.9069 1811.8 22.1469C1811.35 22.3869 1810.79 22.4949 1810.1 22.4949H1808.59V25.8789H1807.22V17.5389H1810.1C1810.74 17.5389 1811.28 17.6589 1811.72 17.8749C1812.17 18.0909 1812.5 18.3909 1812.72 18.7629C1812.94 19.1469 1813.06 19.5669 1813.06 20.0229C1813.06 20.4549 1812.95 20.8509 1812.76 21.2229ZM1811.27 21.0309C1811.52 20.7909 1811.65 20.4549 1811.65 20.0229C1811.65 19.1109 1811.14 18.6549 1810.1 18.6549H1808.59V21.3789H1810.1C1810.62 21.3789 1811 21.2709 1811.27 21.0309ZM1816.27 19.4469C1816.61 19.2549 1817 19.1589 1817.46 19.1589V20.5749H1817.11C1816.57 20.5749 1816.16 20.7189 1815.89 20.9829C1815.61 21.2589 1815.48 21.7269 1815.48 22.3989V25.8789H1814.11V19.2669H1815.48V20.2269C1815.67 19.8909 1815.93 19.6389 1816.27 19.4469ZM1818.54 18.1389C1818.37 17.9709 1818.29 17.7669 1818.29 17.5149C1818.29 17.2749 1818.37 17.0589 1818.54 16.8909C1818.71 16.7229 1818.91 16.6389 1819.16 16.6389C1819.4 16.6389 1819.61 16.7229 1819.77 16.8909C1819.94 17.0589 1820.03 17.2749 1820.03 17.5149C1820.03 17.7669 1819.94 17.9709 1819.77 18.1389C1819.61 18.3069 1819.4 18.3909 1819.16 18.3909C1818.91 18.3909 1818.71 18.3069 1818.54 18.1389ZM1819.83 19.2669V25.8789H1818.47V19.2669H1819.83ZM1823.94 24.6549L1825.81 19.2669H1827.26L1824.74 25.8789H1823.11L1820.6 19.2669H1822.06L1823.94 24.6549ZM1828 20.7789C1828.27 20.2749 1828.64 19.8789 1829.12 19.5909C1829.6 19.3029 1830.13 19.1589 1830.71 19.1589C1831.22 19.1589 1831.68 19.2669 1832.06 19.4709C1832.45 19.6749 1832.76 19.9269 1833 20.2269V19.2669H1834.38V25.8789H1833V24.8949C1832.76 25.2069 1832.45 25.4709 1832.05 25.6749C1831.64 25.8909 1831.19 25.9869 1830.68 25.9869C1830.11 25.9869 1829.59 25.8429 1829.12 25.5549C1828.64 25.2669 1828.27 24.8589 1828 24.3309C1827.72 23.8029 1827.59 23.2149 1827.59 22.5429C1827.59 21.8829 1827.72 21.2949 1828 20.7789ZM1832.71 21.3789C1832.52 21.0429 1832.28 20.7909 1831.98 20.6109C1831.67 20.4429 1831.34 20.3469 1831 20.3469C1830.64 20.3469 1830.31 20.4429 1830.01 20.6109C1829.7 20.7789 1829.46 21.0309 1829.27 21.3669C1829.08 21.7029 1828.99 22.0869 1828.99 22.5429C1828.99 22.9989 1829.08 23.4069 1829.27 23.7429C1829.46 24.0909 1829.7 24.3549 1830.01 24.5349C1830.32 24.7149 1830.65 24.7989 1831 24.7989C1831.34 24.7989 1831.67 24.7149 1831.98 24.5349C1832.28 24.3669 1832.52 24.1029 1832.71 23.7669C1832.9 23.4309 1833 23.0229 1833 22.5669C1833 22.1109 1832.9 21.7149 1832.71 21.3789ZM1835.88 20.7789C1836.16 20.2629 1836.54 19.8669 1837.03 19.5789C1837.51 19.3029 1838.08 19.1589 1838.71 19.1589C1839.5 19.1589 1840.16 19.3509 1840.69 19.7349C1841.22 20.1189 1841.57 20.6589 1841.76 21.3549H1840.28C1840.16 21.0309 1839.97 20.7789 1839.71 20.5869C1839.44 20.4069 1839.11 20.3109 1838.71 20.3109C1838.15 20.3109 1837.7 20.5149 1837.37 20.9109C1837.03 21.3069 1836.88 21.8589 1836.88 22.5669C1836.88 23.2869 1837.03 23.8389 1837.37 24.2349C1837.7 24.6429 1838.15 24.8349 1838.71 24.8349C1839.5 24.8349 1840.02 24.4869 1840.28 23.7909H1841.76C1841.57 24.4629 1841.21 25.0029 1840.68 25.3989C1840.15 25.7949 1839.49 25.9869 1838.71 25.9869C1838.08 25.9869 1837.51 25.8549 1837.03 25.5669C1836.54 25.2789 1836.16 24.8829 1835.88 24.3669C1835.6 23.8509 1835.47 23.2509 1835.47 22.5669C1835.47 21.8949 1835.6 21.2949 1835.88 20.7789ZM1848.82 19.2669L1844.77 28.9869H1843.35L1844.7 25.7709L1842.09 19.2669H1843.62L1845.48 24.3069L1847.41 19.2669H1848.82ZM1857.2 19.4829C1857.61 19.6989 1857.93 20.0229 1858.17 20.4429C1858.4 20.8749 1858.52 21.3789 1858.52 21.9789V25.8789H1857.17V22.1829C1857.17 21.5949 1857.01 21.1389 1856.72 20.8269C1856.42 20.5149 1856.01 20.3469 1855.51 20.3469C1854.99 20.3469 1854.59 20.5149 1854.29 20.8269C1853.99 21.1389 1853.84 21.5949 1853.84 22.1829V25.8789H1852.47V19.2669H1853.84V20.0229C1854.06 19.7589 1854.35 19.5429 1854.69 19.3869C1855.04 19.2429 1855.41 19.1589 1855.81 19.1589C1856.33 19.1589 1856.79 19.2669 1857.2 19.4829ZM1861.19 25.5669C1860.69 25.2789 1860.29 24.8829 1860.01 24.3669C1859.72 23.8509 1859.57 23.2509 1859.57 22.5669C1859.57 21.8949 1859.72 21.3069 1860.02 20.7789C1860.31 20.2629 1860.71 19.8669 1861.23 19.5789C1861.73 19.3029 1862.31 19.1589 1862.95 19.1589C1863.57 19.1589 1864.15 19.3029 1864.66 19.5789C1865.17 19.8669 1865.57 20.2629 1865.87 20.7789C1866.16 21.3069 1866.32 21.8949 1866.32 22.5669C1866.32 23.2389 1866.16 23.8389 1865.86 24.3549C1865.55 24.8829 1865.14 25.2789 1864.61 25.5669C1864.09 25.8549 1863.51 25.9869 1862.89 25.9869C1862.26 25.9869 1861.7 25.8549 1861.19 25.5669ZM1863.87 24.5469C1864.18 24.3789 1864.43 24.1269 1864.63 23.7909C1864.82 23.4549 1864.91 23.0469 1864.91 22.5669C1864.91 22.0869 1864.82 21.6909 1864.64 21.3549C1864.45 21.0189 1864.21 20.7669 1863.91 20.5989C1863.59 20.4309 1863.27 20.3469 1862.92 20.3469C1862.56 20.3469 1862.24 20.4309 1861.94 20.5989C1861.64 20.7669 1861.4 21.0189 1861.23 21.3549C1861.05 21.6909 1860.97 22.0869 1860.97 22.5669C1860.97 23.2869 1861.15 23.8389 1861.51 24.2229C1861.87 24.6069 1862.33 24.7989 1862.89 24.7989C1863.23 24.7989 1863.56 24.7149 1863.87 24.5469ZM1869.02 20.3829V24.0429C1869.02 24.2949 1869.06 24.4749 1869.18 24.5829C1869.3 24.6909 1869.5 24.7389 1869.78 24.7389H1870.62V25.8789H1869.54C1868.92 25.8789 1868.45 25.7349 1868.13 25.4469C1867.79 25.1589 1867.64 24.6909 1867.64 24.0429V20.3829H1866.86V19.2669H1867.64V17.6229H1869.02V19.2669H1870.62V20.3829H1869.02ZM1871.71 18.1389C1871.54 17.9709 1871.45 17.7669 1871.45 17.5149C1871.45 17.2749 1871.54 17.0589 1871.71 16.8909C1871.87 16.7229 1872.08 16.6389 1872.33 16.6389C1872.57 16.6389 1872.77 16.7229 1872.94 16.8909C1873.11 17.0589 1873.19 17.2749 1873.19 17.5149C1873.19 17.7669 1873.11 17.9709 1872.94 18.1389C1872.77 18.3069 1872.57 18.3909 1872.33 18.3909C1872.08 18.3909 1871.87 18.3069 1871.71 18.1389ZM1873 19.2669V25.8789H1871.63V19.2669H1873ZM1874.5 20.7789C1874.78 20.2629 1875.16 19.8669 1875.65 19.5789C1876.13 19.3029 1876.7 19.1589 1877.33 19.1589C1878.12 19.1589 1878.78 19.3509 1879.31 19.7349C1879.84 20.1189 1880.19 20.6589 1880.38 21.3549H1878.9C1878.78 21.0309 1878.59 20.7789 1878.33 20.5869C1878.06 20.4069 1877.73 20.3109 1877.33 20.3109C1876.77 20.3109 1876.32 20.5149 1875.99 20.9109C1875.65 21.3069 1875.5 21.8589 1875.5 22.5669C1875.5 23.2869 1875.65 23.8389 1875.99 24.2349C1876.32 24.6429 1876.77 24.8349 1877.33 24.8349C1878.12 24.8349 1878.64 24.4869 1878.9 23.7909H1880.38C1880.19 24.4629 1879.83 25.0029 1879.3 25.3989C1878.77 25.7949 1878.11 25.9869 1877.33 25.9869C1876.7 25.9869 1876.13 25.8549 1875.65 25.5669C1875.16 25.2789 1874.78 24.8829 1874.5 24.3669C1874.22 23.8509 1874.09 23.2509 1874.09 22.5669C1874.09 21.8949 1874.22 21.2949 1874.5 20.7789ZM1887.51 23.0829H1882.45C1882.49 23.6109 1882.68 24.0429 1883.04 24.3549C1883.39 24.6789 1883.82 24.8349 1884.34 24.8349C1885.07 24.8349 1885.59 24.5349 1885.9 23.9109H1887.37C1887.17 24.5229 1886.81 25.0269 1886.28 25.4109C1885.75 25.7949 1885.11 25.9869 1884.34 25.9869C1883.7 25.9869 1883.14 25.8549 1882.63 25.5669C1882.13 25.2789 1881.75 24.8829 1881.46 24.3669C1881.17 23.8509 1881.04 23.2509 1881.04 22.5669C1881.04 21.8949 1881.17 21.2949 1881.45 20.7789C1881.72 20.2629 1882.11 19.8669 1882.61 19.5789C1883.11 19.3029 1883.69 19.1589 1884.34 19.1589C1884.96 19.1589 1885.51 19.3029 1886.01 19.5669C1886.49 19.8429 1886.87 20.2269 1887.15 20.7189C1887.41 21.2109 1887.55 21.7749 1887.55 22.4109C1887.55 22.6629 1887.53 22.8909 1887.51 23.0829ZM1886.13 21.9789C1886.11 21.4749 1885.93 21.0789 1885.59 20.7669C1885.23 20.4669 1884.79 20.3109 1884.28 20.3109C1883.8 20.3109 1883.4 20.4669 1883.07 20.7669C1882.73 21.0669 1882.53 21.4749 1882.47 21.9789H1886.13Z" fill="white" fill-opacity="0.8"/>
</svg>
