<svg width="110" height="18" viewBox="0 0 110 18" fill="none" xmlns="http://www.w3.org/2000/svg">
<path fill-rule="evenodd" clip-rule="evenodd" d="M95.0439 4.76817C94.4505 4.54992 94.1447 3.88713 94.3607 3.28771C94.5765 2.68829 95.2324 2.37911 95.8256 2.59735C94.5867 2.14155 93.2167 2.78728 92.7656 4.03919C92.315 5.29128 92.9536 6.67574 94.1926 7.13135L105.924 11.4462L95.8256 15.1603C94.5867 15.6159 93.2167 14.9703 92.7656 13.7182C92.315 12.4663 92.9536 11.0819 94.1926 10.6263C92.3077 11.3194 91.3361 13.4254 92.022 15.3299C92.7081 17.2347 94.7921 18.2166 96.6768 17.5234L107.694 13.4713C108.801 13.0643 109.371 11.8275 108.968 10.7089C108.744 10.0863 108.265 9.63141 107.694 9.42104L95.0439 4.76817Z" fill="#0C6B58"/>
<path fill-rule="evenodd" clip-rule="evenodd" d="M105.924 6.31146L95.8256 2.59738C94.5867 2.14158 93.2167 2.78731 92.7656 4.03921C92.315 5.29131 92.9536 6.67577 94.1926 7.13138C92.3077 6.43821 91.3361 4.33227 92.022 2.42751C92.7081 0.522935 94.7921 -0.459164 96.6768 0.234005L107.694 4.28633C108.801 4.6932 109.371 5.9301 108.968 7.04851C108.744 7.67118 108.265 8.12604 107.694 8.3366L95.0439 12.9895C94.4505 13.2077 94.1447 13.8705 94.3607 14.4699C94.5765 15.0694 95.2324 15.3785 95.8256 15.1603C94.5867 15.6159 93.2167 14.9704 92.7656 13.7183C92.315 12.4664 92.9536 11.0819 94.1926 10.6263L105.924 6.31146Z" fill="#3EBD93"/>
<path fill-rule="evenodd" clip-rule="evenodd" d="M3.69428 8.65601H1.99919V11.6042H3.78333C4.81994 11.6042 5.3825 11.0503 5.3825 10.1076C5.3825 9.25468 4.77541 8.65601 3.69428 8.65601ZM3.38331 4.61568H1.99919V7.0848H3.45753C4.44979 7.0848 4.89397 6.59094 4.89397 5.79802C4.89397 5.03473 4.33105 4.61568 3.38331 4.61568ZM0 3.01447H3.48703C5.57509 3.01447 6.98185 3.86739 6.98185 5.5884C6.98185 6.72575 6.16733 7.48885 5.17525 7.72828V7.75828C6.71542 7.96771 7.51509 9.07506 7.51509 10.2872C7.51509 12.1727 6.00443 13.2202 3.99058 13.2202H0V3.01447ZM25.8657 8.74582H29.1828C29.0939 7.9079 28.4571 7.21942 27.5242 7.21942C26.5468 7.21942 25.9397 7.95271 25.8657 8.74582ZM31.1523 9.58392C31.1523 9.74854 31.1523 9.92797 31.1228 10.1226H25.8508C25.8508 11.1103 26.6802 11.9632 27.6871 11.9632C28.3387 11.9632 28.7978 11.6788 29.1087 11.2149L30.7578 11.8217C30.2038 12.7565 29.2171 13.4746 27.6723 13.4746C25.5547 13.4746 23.8962 11.9184 23.8962 9.58392C23.8962 7.53366 25.2289 5.81283 27.5391 5.81283C29.8787 5.81283 31.1523 7.57866 31.1523 9.58392ZM85.5539 7.98271C85.5096 7.47385 85.1838 7.17461 84.7394 7.17461C84.2655 7.17461 84.0137 7.48885 84.0137 7.80309C84.0137 8.20714 84.236 8.46158 85.4353 8.88063C86.931 9.37449 87.4789 10.1376 87.4789 11.1701C87.4789 12.4869 86.4866 13.4746 84.7394 13.4746C82.9328 13.4746 82.0739 12.5169 81.9999 11.1253H83.7917C83.836 11.6938 84.1323 12.0979 84.7839 12.0979C85.2875 12.0979 85.5983 11.7536 85.5983 11.3347C85.5983 10.8409 85.2576 10.5416 84.1915 10.1824C82.8588 9.74854 82.1628 9.07506 82.1628 7.95271C82.1628 6.66594 83.1994 5.81283 84.7246 5.81283C86.2942 5.81283 87.1679 6.72575 87.316 7.98271H85.5539ZM76.1396 8.74582H79.4567C79.3678 7.9079 78.7311 7.21942 77.798 7.21942C76.8209 7.21942 76.2137 7.95271 76.1396 8.74582ZM81.4262 9.58392C81.4262 9.74854 81.4262 9.92797 81.3967 10.1226H76.125C76.125 11.1103 76.954 11.9632 77.9609 11.9632C78.6127 11.9632 79.0719 11.6788 79.3825 11.2149L81.0318 11.8217C80.4777 12.7565 79.491 13.4746 77.9462 13.4746C75.8287 13.4746 74.1701 11.9184 74.1701 9.58392C74.1701 7.53366 75.5029 5.81283 77.813 5.81283C80.1527 5.81283 81.4262 7.57866 81.4262 9.58392ZM66.4146 2.4458H68.4136V6.95018H68.473C68.9615 6.15708 69.7612 5.82783 70.5607 5.82783C72.1454 5.82783 73.256 6.89018 73.256 9.10506V13.2202H71.2568V9.22487C71.2568 8.16215 70.7534 7.60866 69.9241 7.60866C69.0504 7.60866 68.4136 8.22214 68.4136 9.4343V13.2202H66.4146V2.4458ZM61.3243 11.6192C62.3166 11.6192 63.1311 10.7959 63.1311 9.61373C63.1311 8.38676 62.3461 7.57866 61.3392 7.57866C60.1396 7.57866 59.5177 8.5962 59.5177 9.59892C59.5177 10.5866 60.0805 11.6192 61.3243 11.6192ZM65.0117 12.9958C65.0117 15.6595 63.8271 17.0661 61.2059 17.0661C59.4866 17.0661 58.2676 16.246 57.7993 14.8685L59.6363 14.1929C59.7842 14.8812 60.2877 15.4199 61.3243 15.4199C62.5238 15.4199 63.1459 14.6568 63.1459 13.2652V12.3523H63.1012C62.6275 12.921 61.9316 13.3848 60.8356 13.3848C58.9995 13.3848 57.489 11.9332 57.489 9.61373C57.489 7.45885 58.9552 5.82783 60.9247 5.82783C62.05 5.82783 62.7164 6.41151 63.0717 6.92018H63.1459V6.05227H65.0117V12.9958ZM56.4565 13.2202H54.4722V12.3223H54.4276C53.85 13.1754 53.1246 13.4596 52.3544 13.4596C51.1994 13.4596 49.7778 12.7413 49.7778 10.3022V6.05227H51.777V10.0478C51.777 11.0953 52.2655 11.664 53.0357 11.664C53.9092 11.664 54.4573 11.0503 54.4573 9.85335V6.05227H56.4565V13.2202ZM46.3719 8.88063H42.4846V13.2202H40.3671V3.01447H42.4846V7.02499H46.3719V3.01447H48.4894V13.2202H46.3719V8.88063ZM36.9385 7.78809C36.6865 7.74328 36.3904 7.69828 35.9906 7.69828C34.8059 7.69828 34.2135 8.44658 34.2135 9.73354V13.2202H32.2145V6.05227H34.1693V7.15961H34.2135C34.5987 6.45632 35.339 5.84265 36.2869 5.84265C36.5682 5.84265 36.7459 5.85783 36.9385 5.90264V7.78809ZM19.7535 10.2722L19.2942 10.7211V13.2202H17.2952V2.4458H19.2942V8.47657L21.5452 6.05227H23.9737L21.1305 9.00025L24.4033 13.2202H21.9894L19.7535 10.2722ZM12.1606 11.709C13.1084 11.709 13.9375 10.8709 13.9375 9.65873C13.9375 8.40158 13.1676 7.57866 12.1755 7.57866C10.9314 7.57866 10.3392 8.6112 10.3392 9.64373C10.3392 10.6913 10.9168 11.709 12.1606 11.709ZM15.833 13.2202H13.908V12.3223H13.8489C13.3896 12.936 12.6937 13.4596 11.5387 13.4596C10.1616 13.4596 8.3105 12.3373 8.3105 9.62892C8.3105 7.32423 9.88016 5.85783 11.6868 5.85783C12.7974 5.85783 13.4637 6.41151 13.8489 6.98018H13.908V6.05227H15.833V13.2202Z" fill="white"/>
</svg>
