<svg width="1920" height="72" viewBox="0 0 1920 72" fill="none" xmlns="http://www.w3.org/2000/svg">
<rect width="1920" height="72" fill="#2A2A2A"/>
<path d="M27.7782 29.8197C28.9092 29.3257 30.3254 29.0786 32.022 29.0786C33.3174 29.0786 34.4291 29.2306 35.3523 29.5347C36.2803 29.8387 37.0247 30.2948 37.5854 30.9029C38.1461 31.511 38.5521 32.2521 38.8034 33.1262L43.9608 32.1571C43.5741 30.6369 42.8539 29.3637 41.8002 28.3423C40.7465 27.3161 39.3979 26.537 37.7594 26.0049C36.116 25.4728 34.2067 25.2068 32.022 25.2068C29.3732 25.2068 27.1015 25.6296 25.1971 26.4752C23.2927 27.3209 21.8233 28.5133 20.7937 30.0478C19.7594 31.587 19.2422 33.397 19.2422 35.4873C19.2422 37.5777 19.7352 39.3877 20.7212 40.9269C21.7073 42.4662 23.1573 43.6586 25.0666 44.4995C26.9806 45.3451 29.2959 45.7679 32.022 45.7679C35.3233 45.7679 38.0059 45.1693 40.065 43.9721C42.124 42.775 43.4194 41.0077 43.9608 38.6751L38.8614 37.7059C38.6487 38.6371 38.2621 39.4162 37.7014 40.0433C37.1407 40.6704 36.3867 41.1312 35.4393 41.4257C34.4919 41.7203 33.3512 41.8676 32.022 41.8676C30.3206 41.8676 28.9092 41.63 27.7782 41.155C26.6471 40.6799 25.7916 39.9625 25.2116 39.0029C24.6316 38.0432 24.3415 36.8698 24.3415 35.4873C24.3415 34.1049 24.6316 32.9552 25.2116 32.0003C25.7916 31.0407 26.6471 30.3138 27.7782 29.8197Z" fill="white"/>
<path d="M61.5989 30.5183C60.0232 29.8627 58.1285 29.5349 55.905 29.5349C53.6816 29.5349 51.8207 29.8627 50.2547 30.5183C48.6886 31.1739 47.4947 32.1051 46.6779 33.3117C45.8562 34.5184 45.4453 35.9674 45.4453 37.6539C45.4453 39.3404 45.8562 40.7941 46.6779 41.9961C47.4996 43.2027 48.6934 44.1339 50.2547 44.7895C51.8207 45.4451 53.701 45.7729 55.905 45.7729C58.1091 45.7729 60.0474 45.4451 61.6134 44.7895C63.1795 44.1339 64.3734 43.2027 65.1902 41.9961C66.0119 40.7894 66.4228 39.3452 66.4228 37.6539C66.4228 35.9626 66.0119 34.5184 65.1902 33.3117C64.3685 32.1051 63.1698 31.1739 61.5989 30.5183ZM60.9464 40.1433C60.5404 40.8179 59.9217 41.3262 59.0903 41.6683C58.259 42.0103 57.1956 42.1813 55.9002 42.1813C54.6048 42.1813 53.5704 42.0103 52.7439 41.6683C51.9126 41.3262 51.2939 40.8179 50.8878 40.1433C50.4818 39.4687 50.2788 38.6373 50.2788 37.6491C50.2788 36.661 50.4867 35.8249 50.9024 35.1408C51.318 34.4567 51.9416 33.9436 52.7729 33.6015C53.6043 33.2595 54.6483 33.0885 55.9002 33.0885C57.1521 33.0885 58.259 33.2595 59.0903 33.6015C59.9217 33.9436 60.5404 34.4519 60.9464 35.1265C61.3524 35.8011 61.5554 36.642 61.5554 37.6491C61.5554 38.6563 61.3524 39.4687 60.9464 40.1433Z" fill="white"/>
<path d="M80.7967 29.5348C79.6173 29.5348 78.5153 29.7438 77.4906 30.1619C76.4659 30.5799 75.5427 31.1643 74.721 31.9149C74.1555 32.4327 73.6673 33.0123 73.2468 33.6442L72.8794 29.8483H68.6211V45.4544H73.3434V39.3308C73.3434 38.6467 73.4449 38.0243 73.6479 37.4637C73.851 36.9031 74.1313 36.4091 74.489 35.9815C74.8467 35.5539 75.2817 35.1976 75.794 34.9126C76.3064 34.6276 76.8719 34.4185 77.4906 34.2855C78.1093 34.1525 78.8053 34.086 79.5787 34.086C79.9267 34.086 80.265 34.105 80.5937 34.143C80.9224 34.181 81.2221 34.238 81.4927 34.314L81.6378 29.587C81.5411 29.568 81.4106 29.5538 81.2462 29.5443C81.0819 29.5348 80.9321 29.53 80.7967 29.53V29.5348Z" fill="white"/>
<path d="M98.4159 32.542C97.7343 31.7581 96.8981 31.1025 95.8928 30.5894C94.52 29.8863 92.9395 29.5348 91.1414 29.5348C89.3433 29.5348 87.6951 29.8673 86.3611 30.5324C85.027 31.1975 84.0023 32.1429 83.2918 33.3686C82.5764 34.5943 82.2188 36.0243 82.2188 37.6538C82.2188 39.2833 82.5764 40.7132 83.2918 41.9389C84.0072 43.1646 85.0319 44.11 86.3611 44.7751C87.6951 45.4402 89.2902 45.7728 91.1414 45.7728C92.9926 45.7728 94.52 45.426 95.8928 44.7323C96.9803 44.1813 97.8745 43.4592 98.585 42.5755L98.8799 45.4592H103.167V24.0952H98.4159V32.542ZM95.7478 41.6254C94.8777 41.9769 93.8337 42.1527 92.6205 42.1527C91.4073 42.1527 90.3777 41.9769 89.5512 41.6254C88.7198 41.2738 88.1011 40.7607 87.6951 40.0861C87.2891 39.4115 87.0861 38.5992 87.0861 37.649C87.0861 36.6989 87.2891 35.9103 87.6951 35.2262C88.1011 34.542 88.7198 34.0242 89.5512 33.6727C90.3826 33.3211 91.4073 33.1453 92.6205 33.1453C93.8337 33.1453 94.8826 33.3259 95.7478 33.6869C96.6178 34.048 97.28 34.5658 97.7343 35.2404C98.1887 35.915 98.4159 36.7179 98.4159 37.649C98.4159 38.5802 98.1887 39.3878 97.7343 40.0719C97.28 40.756 96.6178 41.2738 95.7478 41.6254Z" fill="white"/>
<path d="M125.334 42.3522C125.102 42.3522 124.904 42.3095 124.74 42.224C124.576 42.1384 124.464 42.0149 124.406 41.8534C124.348 41.6919 124.319 41.4876 124.319 41.2406V35.5444C124.319 34.4993 124.141 33.6014 123.783 32.8508C123.425 32.1002 122.879 31.4778 122.144 30.9838C121.41 30.4897 120.477 30.1239 119.346 29.8863C118.215 29.6488 116.885 29.53 115.363 29.53C113.565 29.53 112.028 29.7106 110.742 30.0716C109.456 30.4327 108.422 30.9837 107.644 31.7249C106.861 32.466 106.315 33.3971 106.005 34.5183L110.583 35.2309C110.699 34.6988 110.931 34.2522 111.279 33.8912C111.627 33.5301 112.134 33.2641 112.801 33.0931C113.468 32.922 114.295 32.8365 115.281 32.8365C116.093 32.8365 116.789 32.8983 117.369 33.0218C117.949 33.1453 118.422 33.3259 118.79 33.5634C119.157 33.8009 119.428 34.1145 119.602 34.504C119.766 34.8698 119.848 35.2927 119.858 35.763L112.733 36.2523C111.032 36.4043 109.65 36.6751 108.591 37.0647C107.528 37.4542 106.74 37.9816 106.228 38.6467C105.715 39.3118 105.459 40.1289 105.459 41.098C105.459 42.5803 106.049 43.7299 107.228 44.5423C108.407 45.3594 110.041 45.768 112.124 45.768C113.149 45.768 114.121 45.6682 115.034 45.4687C115.953 45.2692 116.789 44.9794 117.543 44.5993C118.297 44.2193 118.959 43.7584 119.529 43.2169C119.684 43.0696 119.829 42.9176 119.964 42.7608C120.071 43.6207 120.37 44.3048 120.873 44.7988C121.511 45.4259 122.468 45.7395 123.744 45.7395C124.092 45.7395 124.464 45.711 124.861 45.654C125.257 45.597 125.62 45.521 125.948 45.4259L126.035 42.2667C125.919 42.3047 125.803 42.3285 125.687 42.338C125.571 42.3475 125.455 42.3522 125.339 42.3522H125.334ZM118.625 40.9983C118.21 41.3118 117.722 41.5826 117.161 41.8106C116.6 42.0387 115.982 42.2145 115.305 42.338C114.628 42.4615 113.903 42.5233 113.13 42.5233C112.086 42.5233 111.312 42.3807 110.81 42.0957C110.307 41.8106 110.056 41.3736 110.056 40.7845C110.056 40.2714 110.263 39.8723 110.679 39.5873C111.095 39.3023 111.728 39.1312 112.579 39.0742L119.911 38.4519V38.7322C119.911 39.1502 119.8 39.5541 119.578 39.9436C119.355 40.3332 119.036 40.6847 118.621 40.9983H118.625Z" fill="white"/>
<path d="M144.141 30.3045C143.058 29.7915 141.753 29.5349 140.231 29.5349C139.148 29.5349 138.138 29.6774 137.205 29.9625C136.267 30.2475 135.426 30.6561 134.682 31.1882C133.937 31.7202 133.294 32.3568 132.753 33.098L132.405 29.8532H128.176V45.4593H132.898V38.2525C132.898 37.4924 133.033 36.813 133.304 36.2144C133.575 35.6158 133.962 35.1028 134.464 34.6752C134.967 34.2476 135.566 33.9198 136.262 33.6918C136.958 33.4638 137.732 33.3497 138.582 33.3497C139.491 33.3497 140.245 33.497 140.844 33.7916C141.444 34.0861 141.903 34.5137 142.222 35.0743C142.541 35.6348 142.7 36.3047 142.7 37.0838V45.4593H147.423V36.0909C147.423 34.7037 147.147 33.5255 146.596 32.5469C146.045 31.5682 145.228 30.8224 144.146 30.3093L144.141 30.3045Z" fill="white"/>
<path d="M162.31 42.053C161.633 42.1195 161.015 42.1528 160.454 42.1528C159.545 42.1528 158.835 42.0578 158.322 41.8677C157.81 41.6777 157.443 41.3689 157.22 40.9413C156.998 40.5138 156.887 39.8914 156.887 39.0743V33.3212H164.016V29.8484H156.887V25.8625H153.208C153.15 26.7747 153.078 27.5015 152.991 28.0431C152.904 28.5847 152.778 28.9838 152.614 29.2403C152.45 29.4968 152.222 29.6631 151.932 29.7391C151.642 29.8151 151.265 29.8532 150.801 29.8532H148.945V33.3259H152.135V39.6491C152.135 41.1314 152.392 42.3238 152.904 43.2217C153.416 44.1243 154.195 44.7752 155.239 45.1742C156.283 45.5733 157.607 45.7728 159.207 45.7728C159.71 45.7728 160.251 45.7491 160.831 45.7016C161.411 45.654 161.976 45.597 162.527 45.5305C163.079 45.464 163.615 45.3928 164.137 45.3167L164.253 41.7585C163.634 41.8915 162.987 41.9912 162.31 42.0578V42.053Z" fill="white"/>
<path d="M164 25.6558V25H167.954V25.6558H166.36V30.0223H165.595V25.6558H164.008H164Z" fill="white"/>
<path d="M168.816 25H169.752L171.379 28.9027H171.436L173.064 25H173.999V30.0223H173.267V26.3915H173.218L171.713 30.0143H171.103L169.598 26.3835H169.549V30.0223H168.816V25Z" fill="white"/>
</svg>
