<svg width="395" height="313" viewBox="0 0 395 313" fill="none" xmlns="http://www.w3.org/2000/svg">
<path d="M376.042 177.493C376.014 151 369.971 124.848 358.357 100.952C346.742 77.056 329.849 56.021 308.915 39.3869C287.981 22.7527 263.536 10.9405 237.368 4.81474C211.201 -1.31098 183.974 -1.5951 157.68 3.98326C131.387 9.56161 106.693 20.8612 85.406 37.0548C64.1189 53.2485 46.7777 73.9262 34.6517 97.5743C22.5257 121.222 15.9221 147.242 15.324 173.729C14.726 200.216 20.1487 226.5 31.1953 250.655H359.985C370.591 227.681 376.067 202.731 376.042 177.493Z" fill="#414141"/>
<path fill-rule="evenodd" clip-rule="evenodd" d="M19.9304 249.75C19.9304 249.288 20.1168 248.844 20.4484 248.518C20.7801 248.191 21.2298 248.008 21.6989 248.008H373.425C373.792 248.113 374.115 248.333 374.345 248.635C374.574 248.936 374.698 249.303 374.698 249.68C374.698 250.057 374.574 250.424 374.345 250.725C374.115 251.027 373.792 251.247 373.425 251.352H21.6281C21.1949 251.336 20.7827 251.165 20.4697 250.869C20.1567 250.574 19.9648 250.175 19.9304 249.75ZM0 249.75C0 249.288 0.186343 248.844 0.517991 248.518C0.849639 248.191 1.29942 248.008 1.76845 248.008H13.0511C13.4185 248.113 13.7412 248.333 13.9708 248.635C14.2003 248.936 14.3245 249.303 14.3245 249.68C14.3245 250.057 14.2003 250.424 13.9708 250.725C13.7412 251.027 13.4185 251.247 13.0511 251.352H1.76845C1.32294 251.354 0.893349 251.189 0.565484 250.892C0.237619 250.595 0.0356385 250.187 0 249.75ZM382.444 248.008C382.077 248.113 381.754 248.333 381.524 248.635C381.295 248.936 381.171 249.303 381.171 249.68C381.171 250.057 381.295 250.424 381.524 250.725C381.754 251.027 382.077 251.247 382.444 251.352H393.727C394.094 251.247 394.417 251.027 394.646 250.725C394.876 250.424 395 250.057 395 249.68C395 249.303 394.876 248.936 394.646 248.635C394.417 248.333 394.094 248.113 393.727 248.008H382.444Z" fill="#888888"/>
<path d="M194.493 313C256.158 313 306.135 308.523 306.135 303.019C306.135 297.514 256.158 293.02 194.493 293.02C132.827 293.02 82.7976 297.496 82.7976 303.019C82.7976 308.541 132.845 313 194.493 313Z" fill="#414141"/>
<path d="M112.314 135.931H123.419C123.517 135.931 123.614 135.95 123.704 135.987C123.794 136.024 123.876 136.078 123.945 136.145C124.014 136.213 124.068 136.294 124.106 136.383C124.143 136.472 124.162 136.567 124.162 136.663V153.821C124.162 153.917 124.143 154.012 124.106 154.101C124.068 154.19 124.014 154.271 123.945 154.339C123.876 154.407 123.794 154.46 123.704 154.497C123.614 154.534 123.517 154.553 123.419 154.553H112.314C112.117 154.553 111.928 154.476 111.789 154.339C111.649 154.201 111.571 154.015 111.571 153.821V136.663C111.571 136.469 111.649 136.283 111.789 136.145C111.928 136.008 112.117 135.931 112.314 135.931Z" stroke="#888888" stroke-width="7.82621"/>
<path d="M270.802 135.931H281.907C282.005 135.931 282.101 135.95 282.192 135.987C282.282 136.024 282.364 136.078 282.432 136.145C282.501 136.213 282.556 136.294 282.594 136.383C282.631 136.472 282.65 136.567 282.65 136.663V153.821C282.652 153.918 282.635 154.014 282.598 154.104C282.562 154.194 282.507 154.276 282.438 154.344C282.368 154.412 282.286 154.466 282.194 154.502C282.103 154.538 282.005 154.555 281.907 154.553H270.802C270.704 154.553 270.607 154.534 270.517 154.497C270.427 154.46 270.345 154.407 270.276 154.339C270.207 154.271 270.153 154.19 270.115 154.101C270.078 154.012 270.059 153.917 270.059 153.821V136.663C270.059 136.567 270.078 136.472 270.115 136.383C270.153 136.294 270.207 136.213 270.276 136.145C270.345 136.078 270.427 136.024 270.517 135.987C270.607 135.95 270.704 135.931 270.802 135.931Z" stroke="#888888" stroke-width="7.82621"/>
<path d="M117.159 150.651C117.955 110.882 153.165 78.446 197.11 78.446C241.056 78.446 276.266 110.882 277.062 150.651H117.159Z" fill="#1F1F1F" stroke="#888888" stroke-width="6.71197"/>
<path d="M208.728 146.383H183.864L172.617 66.2522H219.94L208.728 146.383Z" fill="#1F1F1F" stroke="#888888" stroke-width="6.71197"/>
<path d="M283.835 167.443C283.859 169.829 282.92 172.126 281.226 173.831C279.532 175.536 277.22 176.509 274.798 176.536H119.865C117.443 176.509 115.131 175.536 113.437 173.831C111.743 172.126 110.804 169.829 110.828 167.443V159.935V159.656V159.413V159.238V159.099V158.925V158.82V158.576V158.472H283.64C283.747 160.771 283.835 163.959 283.835 167.443Z" fill="#1F1F1F" stroke="#888888" stroke-width="6.71197"/>
<path d="M120.288 222.733H233.469V248.984H120.288V222.733Z" fill="#1F1F1F" stroke="#888888" stroke-width="7.98538" stroke-linejoin="round"/>
<path d="M259.339 204.929C259.399 204.81 259.434 204.681 259.442 204.549C259.451 204.416 259.432 204.284 259.387 204.159C259.343 204.034 259.274 203.919 259.183 203.821C259.093 203.723 258.984 203.643 258.862 203.587C252.457 200.726 245.341 199.775 238.393 200.852C231.445 201.928 224.97 204.986 219.766 209.647C214.563 214.309 210.859 220.369 209.112 227.08C207.366 233.791 207.653 240.859 209.938 247.411C212.224 253.963 216.407 259.713 221.972 263.949C227.537 268.186 234.24 270.725 241.253 271.251C248.266 271.778 255.282 270.27 261.434 266.913C267.587 263.556 272.607 258.498 275.874 252.363C275.937 252.246 275.975 252.117 275.986 251.985C275.996 251.853 275.98 251.72 275.937 251.595C275.894 251.469 275.825 251.354 275.735 251.255C275.646 251.157 275.536 251.077 275.414 251.021L244.927 236.354C244.683 236.234 244.496 236.025 244.407 235.771C244.317 235.517 244.333 235.238 244.449 234.995L259.339 204.929Z" fill="#1F1F1F" stroke="#888888" stroke-width="8.07"/>
</svg>
