<svg width="395" height="314" viewBox="0 0 395 314" fill="none" xmlns="http://www.w3.org/2000/svg">
<path d="M376.042 177.993C376.014 151.5 369.971 125.348 358.357 101.452C346.742 77.556 329.849 56.521 308.915 39.8869C287.981 23.2527 263.536 11.4405 237.368 5.31474C211.201 -0.810985 183.974 -1.0951 157.68 4.48326C131.387 10.0616 106.693 21.3612 85.406 37.5548C64.1189 53.7485 46.7777 74.4262 34.6517 98.0743C22.5257 121.722 15.9221 147.742 15.324 174.229C14.726 200.716 20.1487 227 31.1953 251.155H359.985C370.591 228.181 376.067 203.231 376.042 177.993Z" fill="#EBEFEE"/>
<path fill-rule="evenodd" clip-rule="evenodd" d="M19.9304 250.25C19.9304 249.788 20.1168 249.345 20.4484 249.018C20.7801 248.691 21.2298 248.508 21.6989 248.508H373.425C373.792 248.613 374.115 248.833 374.345 249.135C374.574 249.436 374.698 249.803 374.698 250.18C374.698 250.557 374.574 250.924 374.345 251.225C374.115 251.527 373.792 251.747 373.425 251.852H21.6281C21.1949 251.837 20.7827 251.665 20.4697 251.369C20.1567 251.074 19.9648 250.675 19.9304 250.25ZM0 250.25C0 249.788 0.186343 249.345 0.517991 249.018C0.849639 248.691 1.29942 248.508 1.76845 248.508H13.0511C13.4185 248.613 13.7412 248.833 13.9708 249.135C14.2003 249.436 14.3245 249.803 14.3245 250.18C14.3245 250.557 14.2003 250.924 13.9708 251.225C13.7412 251.527 13.4185 251.747 13.0511 251.852H1.76845C1.32294 251.854 0.893349 251.69 0.565484 251.392C0.237619 251.095 0.0356385 250.687 0 250.25ZM382.444 248.508C382.077 248.613 381.754 248.833 381.524 249.135C381.295 249.436 381.171 249.803 381.171 250.18C381.171 250.557 381.295 250.924 381.524 251.225C381.754 251.527 382.077 251.747 382.444 251.852H393.727C394.094 251.747 394.417 251.527 394.646 251.225C394.876 250.924 395 250.557 395 250.18C395 249.803 394.876 249.436 394.646 249.135C394.417 248.833 394.094 248.613 393.727 248.508H382.444Z" fill="#888888"/>
<path d="M194.493 313.5C256.158 313.5 306.135 309.023 306.135 303.519C306.135 298.014 256.158 293.52 194.493 293.52C132.827 293.52 82.7976 297.996 82.7976 303.519C82.7976 309.041 132.845 313.5 194.493 313.5Z" fill="#EBEFEE"/>
<path d="M112.314 136.431H123.419C123.517 136.431 123.614 136.45 123.704 136.487C123.794 136.524 123.876 136.578 123.945 136.645C124.014 136.713 124.068 136.794 124.106 136.883C124.143 136.972 124.162 137.067 124.162 137.163V154.321C124.162 154.417 124.143 154.512 124.106 154.601C124.068 154.69 124.014 154.771 123.945 154.839C123.876 154.907 123.794 154.96 123.704 154.997C123.614 155.034 123.517 155.053 123.419 155.053H112.314C112.117 155.053 111.928 154.976 111.789 154.839C111.649 154.701 111.571 154.515 111.571 154.321V137.163C111.571 136.969 111.649 136.783 111.789 136.645C111.928 136.508 112.117 136.431 112.314 136.431Z" stroke="#888888" stroke-width="7.82621"/>
<path d="M270.802 136.431H281.907C282.005 136.431 282.101 136.45 282.192 136.487C282.282 136.524 282.364 136.578 282.432 136.645C282.501 136.713 282.556 136.794 282.594 136.883C282.631 136.972 282.65 137.067 282.65 137.163V154.321C282.652 154.418 282.635 154.514 282.598 154.604C282.562 154.694 282.507 154.776 282.438 154.844C282.368 154.912 282.286 154.966 282.194 155.002C282.103 155.038 282.005 155.055 281.907 155.053H270.802C270.704 155.053 270.607 155.034 270.517 154.997C270.427 154.96 270.345 154.907 270.276 154.839C270.207 154.771 270.153 154.69 270.115 154.601C270.078 154.512 270.059 154.417 270.059 154.321V137.163C270.059 137.067 270.078 136.972 270.115 136.883C270.153 136.794 270.207 136.713 270.276 136.645C270.345 136.578 270.427 136.524 270.517 136.487C270.607 136.45 270.704 136.431 270.802 136.431Z" stroke="#888888" stroke-width="7.82621"/>
<path d="M117.159 151.151C117.955 111.381 153.165 78.9458 197.11 78.9458C241.056 78.9458 276.266 111.381 277.062 151.151H117.159Z" fill="white" stroke="#888888" stroke-width="6.71197"/>
<path d="M208.728 146.883H183.864L172.617 66.752H219.94L208.728 146.883Z" fill="white" stroke="#888888" stroke-width="6.71197"/>
<path d="M283.835 167.943C283.859 170.328 282.92 172.626 281.226 174.331C279.532 176.035 277.22 177.008 274.798 177.036H119.865C117.443 177.008 115.131 176.035 113.437 174.331C111.743 172.626 110.804 170.328 110.828 167.943V160.435V160.156V159.912V159.738V159.599V159.425V159.32V159.076V158.972H283.64C283.747 161.271 283.835 164.459 283.835 167.943Z" fill="white" stroke="#888888" stroke-width="6.71197"/>
<path d="M120.288 223.233H233.469V249.485H120.288V223.233Z" fill="white" stroke="#888888" stroke-width="7.98538" stroke-linejoin="round"/>
<path d="M259.339 205.429C259.399 205.31 259.434 205.181 259.442 205.049C259.451 204.916 259.432 204.784 259.387 204.659C259.343 204.534 259.274 204.419 259.183 204.321C259.093 204.223 258.984 204.143 258.862 204.087C252.457 201.226 245.341 200.275 238.393 201.352C231.445 202.428 224.97 205.486 219.766 210.147C214.563 214.809 210.859 220.869 209.112 227.58C207.366 234.291 207.653 241.359 209.938 247.911C212.224 254.463 216.407 260.213 221.972 264.449C227.537 268.686 234.24 271.225 241.253 271.751C248.266 272.278 255.282 270.77 261.434 267.413C267.587 264.056 272.607 258.998 275.874 252.863C275.937 252.746 275.975 252.617 275.986 252.485C275.996 252.353 275.98 252.22 275.937 252.095C275.894 251.969 275.825 251.854 275.735 251.755C275.646 251.657 275.536 251.577 275.414 251.521L244.927 236.854C244.683 236.734 244.496 236.525 244.407 236.271C244.317 236.017 244.333 235.738 244.449 235.495L259.339 205.429Z" fill="white" stroke="#888888" stroke-width="8.07"/>
</svg>
