<svg width="155" height="28" viewBox="0 0 155 28" fill="none" xmlns="http://www.w3.org/2000/svg">
<path d="M8.77817 7.81974C9.90922 7.32566 11.3254 7.07862 13.022 7.07862C14.3174 7.07862 15.4291 7.23065 16.3523 7.53469C17.2803 7.83874 18.0247 8.29481 18.5854 8.9029C19.1461 9.51099 19.5521 10.2521 19.8034 11.1262L24.9608 10.1571C24.5741 8.63686 23.8539 7.36367 22.8002 6.34226C21.7465 5.31611 20.3979 4.53699 18.7594 4.00491C17.116 3.47283 15.2067 3.20679 13.022 3.20679C10.3732 3.20679 8.10148 3.6296 6.19708 4.47523C4.29267 5.32086 2.82329 6.51329 1.79375 8.04777C0.759375 9.587 0.242188 11.397 0.242188 13.4873C0.242188 15.5777 0.735207 17.3877 1.72124 18.9269C2.70728 20.4662 4.15733 21.6586 6.06657 22.4995C7.98064 23.3451 10.2959 23.7679 13.022 23.7679C16.3233 23.7679 19.0059 23.1693 21.065 21.9721C23.124 20.775 24.4194 19.0077 24.9608 16.6751L19.8614 15.7059C19.6487 16.6371 19.2621 17.4162 18.7014 18.0433C18.1407 18.6704 17.3867 19.1312 16.4393 19.4257C15.4919 19.7203 14.3512 19.8676 13.022 19.8676C11.3206 19.8676 9.90922 19.63 8.77817 19.155C7.64713 18.6799 6.7916 17.9625 6.21158 17.0029C5.63156 16.0432 5.34155 14.8698 5.34155 13.4873C5.34155 12.1049 5.63156 10.9552 6.21158 10.0003C6.7916 9.04067 7.64713 8.31381 8.77817 7.81974Z" fill="white"/>
<path d="M42.5989 8.51831C41.0232 7.86271 39.1285 7.53491 36.905 7.53491C34.6816 7.53491 32.8207 7.86271 31.2547 8.51831C29.6886 9.17391 28.4947 10.1051 27.6779 11.3117C26.8562 12.5184 26.4453 13.9674 26.4453 15.6539C26.4453 17.3404 26.8562 18.7941 27.6779 19.9961C28.4996 21.2027 29.6934 22.1339 31.2547 22.7895C32.8207 23.4451 34.701 23.7729 36.905 23.7729C39.1091 23.7729 41.0474 23.4451 42.6134 22.7895C44.1795 22.1339 45.3734 21.2027 46.1902 19.9961C47.0119 18.7894 47.4228 17.3452 47.4228 15.6539C47.4228 13.9626 47.0119 12.5184 46.1902 11.3117C45.3685 10.1051 44.1698 9.17391 42.5989 8.51831ZM41.9464 18.1433C41.5404 18.8179 40.9217 19.3262 40.0903 19.6683C39.259 20.0103 38.1956 20.1813 36.9002 20.1813C35.6048 20.1813 34.5704 20.0103 33.7439 19.6683C32.9126 19.3262 32.2939 18.8179 31.8878 18.1433C31.4818 17.4687 31.2788 16.6373 31.2788 15.6491C31.2788 14.661 31.4867 13.8249 31.9024 13.1408C32.318 12.4567 32.9416 11.9436 33.7729 11.6015C34.6043 11.2595 35.6483 11.0885 36.9002 11.0885C38.1521 11.0885 39.259 11.2595 40.0903 11.6015C40.9217 11.9436 41.5404 12.4519 41.9464 13.1265C42.3524 13.8011 42.5554 14.642 42.5554 15.6491C42.5554 16.6563 42.3524 17.4687 41.9464 18.1433Z" fill="white"/>
<path d="M61.7967 7.53478C60.6173 7.53478 59.5153 7.74381 58.4906 8.16188C57.4659 8.57994 56.5427 9.16428 55.721 9.91489C55.1555 10.4327 54.6673 11.0123 54.2468 11.6442L53.8794 7.84833H49.6211V23.4544H54.3434V17.3308C54.3434 16.6467 54.4449 16.0243 54.6479 15.4637C54.851 14.9031 55.1313 14.4091 55.489 13.9815C55.8467 13.5539 56.2817 13.1976 56.794 12.9126C57.3064 12.6276 57.8719 12.4185 58.4906 12.2855C59.1093 12.1525 59.8053 12.086 60.5787 12.086C60.9267 12.086 61.265 12.105 61.5937 12.143C61.9224 12.181 62.2221 12.238 62.4927 12.314L62.6378 7.58704C62.5411 7.56803 62.4106 7.55378 62.2462 7.54428C62.0819 7.53478 61.9321 7.53003 61.7967 7.53003V7.53478Z" fill="white"/>
<path d="M79.4159 10.542C78.7343 9.75813 77.8981 9.10253 76.8928 8.58945C75.52 7.88634 73.9395 7.53479 72.1414 7.53479C70.3433 7.53479 68.6951 7.86734 67.3611 8.53244C66.027 9.19754 65.0023 10.1429 64.2918 11.3686C63.5764 12.5943 63.2188 14.0243 63.2188 15.6538C63.2188 17.2833 63.5764 18.7132 64.2918 19.9389C65.0072 21.1646 66.0319 22.11 67.3611 22.7751C68.6951 23.4402 70.2902 23.7728 72.1414 23.7728C73.9926 23.7728 75.52 23.426 76.8928 22.7323C77.9803 22.1813 78.8745 21.4592 79.585 20.5755L79.8799 23.4592H84.1672V2.09521H79.4159V10.542ZM76.7478 19.6254C75.8777 19.9769 74.8337 20.1527 73.6205 20.1527C72.4073 20.1527 71.3777 19.9769 70.5512 19.6254C69.7198 19.2738 69.1011 18.7607 68.6951 18.0861C68.2891 17.4115 68.0861 16.5992 68.0861 15.649C68.0861 14.6989 68.2891 13.9103 68.6951 13.2262C69.1011 12.542 69.7198 12.0242 70.5512 11.6727C71.3826 11.3211 72.4073 11.1453 73.6205 11.1453C74.8337 11.1453 75.8826 11.3259 76.7478 11.6869C77.6178 12.048 78.28 12.5658 78.7343 13.2404C79.1887 13.915 79.4159 14.7179 79.4159 15.649C79.4159 16.5802 79.1887 17.3878 78.7343 18.0719C78.28 18.756 77.6178 19.2738 76.7478 19.6254Z" fill="white"/>
<path d="M106.334 20.3522C106.102 20.3522 105.904 20.3095 105.74 20.224C105.576 20.1384 105.464 20.0149 105.406 19.8534C105.348 19.6919 105.319 19.4876 105.319 19.2406V13.5444C105.319 12.4993 105.141 11.6014 104.783 10.8508C104.425 10.1002 103.879 9.47783 103.144 8.98375C102.41 8.48968 101.477 8.12387 100.346 7.88633C99.2146 7.6488 97.8854 7.53003 96.3628 7.53003C94.5648 7.53003 93.0277 7.71056 91.742 8.07161C90.4563 8.43267 89.4219 8.98375 88.6437 9.72486C87.8607 10.466 87.3145 11.3971 87.0052 12.5183L91.5825 13.2309C91.6985 12.6988 91.9305 12.2522 92.2785 11.8912C92.6265 11.5301 93.1341 11.2641 93.8011 11.0931C94.4681 10.922 95.2946 10.8365 96.2807 10.8365C97.0927 10.8365 97.7887 10.8983 98.3688 11.0218C98.9488 11.1453 99.4225 11.3259 99.7898 11.5634C100.157 11.8009 100.428 12.1145 100.602 12.504C100.766 12.8698 100.848 13.2927 100.858 13.763L93.7334 14.2523C92.032 14.4043 90.6496 14.6751 89.5911 15.0647C88.5277 15.4542 87.7399 15.9816 87.2275 16.6467C86.7152 17.3118 86.459 18.1289 86.459 19.098C86.459 20.5803 87.0487 21.7299 88.228 22.5423C89.4074 23.3594 91.0412 23.768 93.1244 23.768C94.1491 23.768 95.1206 23.6682 96.0342 23.4687C96.9525 23.2692 97.7887 22.9794 98.5428 22.5993C99.2968 22.2193 99.959 21.7584 100.529 21.2169C100.684 21.0696 100.829 20.9176 100.964 20.7608C101.071 21.6207 101.37 22.3048 101.873 22.7988C102.511 23.4259 103.468 23.7395 104.744 23.7395C105.092 23.7395 105.464 23.711 105.861 23.654C106.257 23.597 106.62 23.521 106.948 23.4259L107.035 20.2667C106.919 20.3047 106.803 20.3285 106.687 20.338C106.571 20.3475 106.455 20.3522 106.339 20.3522H106.334ZM99.6255 18.9983C99.2098 19.3118 98.7216 19.5826 98.1609 19.8106C97.6002 20.0387 96.9815 20.2145 96.3048 20.338C95.6282 20.4615 94.9031 20.5233 94.1298 20.5233C93.0857 20.5233 92.3124 20.3807 91.8097 20.0957C91.307 19.8106 91.0557 19.3736 91.0557 18.7845C91.0557 18.2714 91.2635 17.8723 91.6792 17.5873C92.0949 17.3023 92.728 17.1312 93.5787 17.0742L100.911 16.4519V16.7322C100.911 17.1502 100.8 17.5541 100.578 17.9436C100.355 18.3332 100.036 18.6847 99.6206 18.9983H99.6255Z" fill="white"/>
<path d="M125.141 8.30453C124.058 7.79145 122.753 7.53491 121.231 7.53491C120.148 7.53491 119.138 7.67743 118.205 7.96248C117.267 8.24752 116.426 8.65608 115.682 9.18816C114.937 9.72024 114.294 10.3568 113.753 11.098L113.405 7.85321H109.176V23.4593H113.898V16.2525C113.898 15.4924 114.033 14.813 114.304 14.2144C114.575 13.6158 114.962 13.1028 115.464 12.6752C115.967 12.2476 116.566 11.9198 117.262 11.6918C117.958 11.4638 118.732 11.3497 119.582 11.3497C120.491 11.3497 121.245 11.497 121.844 11.7916C122.444 12.0861 122.903 12.5137 123.222 13.0743C123.541 13.6348 123.7 14.3047 123.7 15.0838V23.4593H128.423V14.0909C128.423 12.7037 128.147 11.5255 127.596 10.5469C127.045 9.56822 126.228 8.82236 125.146 8.30928L125.141 8.30453Z" fill="white"/>
<path d="M143.31 20.053C142.633 20.1195 142.015 20.1528 141.454 20.1528C140.545 20.1528 139.835 20.0578 139.322 19.8677C138.81 19.6777 138.443 19.3689 138.22 18.9413C137.998 18.5138 137.887 17.8914 137.887 17.0743V11.3212H145.016V7.8484H137.887V3.86255H134.208C134.15 4.77469 134.078 5.50155 133.991 6.04313C133.904 6.58471 133.778 6.98377 133.614 7.24031C133.45 7.49685 133.222 7.66312 132.932 7.73914C132.642 7.81515 132.265 7.85315 131.801 7.85315H129.945V11.3259H133.135V17.6491C133.135 19.1314 133.392 20.3238 133.904 21.2217C134.416 22.1243 135.195 22.7752 136.239 23.1742C137.283 23.5733 138.607 23.7728 140.207 23.7728C140.71 23.7728 141.251 23.7491 141.831 23.7016C142.411 23.654 142.976 23.597 143.527 23.5305C144.079 23.464 144.615 23.3928 145.137 23.3167L145.253 19.7585C144.634 19.8915 143.987 19.9912 143.31 20.0578V20.053Z" fill="white"/>
<path d="M145 3.65578V3H148.954V3.65578H147.36V8.02232H146.595V3.65578H145.008H145Z" fill="white"/>
<path d="M149.816 3H150.752L152.379 6.90269H152.436L154.064 3H154.999V8.02232H154.267V4.39153H154.218L152.713 8.01432H152.103L150.598 4.38354H150.549V8.02232H149.816V3Z" fill="white"/>
</svg>
